<svg width="120" height="120" viewBox="0 0 120 120" xmlns="http://www.w3.org/2000/svg"><title>SFP</title><g transform="translate(3 1)" fill="none" fill-rule="evenodd"><g stroke="#22303F" stroke-width="2"><path d="M57.65 78.941L63.176.192M57.687 78.559l16.47-77.216M57.17 79.082L84.188 4.907M57.311 78.724L94.426 9.04"/><g><path d="M57.303 78.604l46.416-63.854M57.537 78.3l54.885-56.756"/></g><g><path d="M57.629 78.941L52.103.192M57.592 78.559L41.122 1.343M57.572 78.938L30.554 4.763M57.431 78.58L20.316 8.895"/><g><path d="M57.52 78.94L11.103 15.085M57.286 78.635L2.4 21.88"/></g></g></g><rect stroke="#22303F" stroke-width="2" fill="#FFF" x="42.978" y="60.61" width="26.448" height="56.202" rx="13.224"/><rect fill="#51C7E1" x="46.284" y="63.916" width="19.836" height="49.59" rx="9.918"/></g></svg>