<svg width="120" height="120" viewBox="0 0 120 120" xmlns="http://www.w3.org/2000/svg"><title>zynq</title><g transform="translate(1 1)" fill="none" fill-rule="evenodd"><rect stroke="#22303F" stroke-width="2" x="1" y="1" width="115.992" height="115.992" rx="4"/><rect fill="#51C7E1" x="4.72" y="4.72" width="108.553" height="108.553" rx="4"/><g fill="#FFF"><path d="M27.728 56.64L20.058 69.8v1.519h12.53v-3.038H24.64l7.593-13.162v-1.518H20.49v3.037h7.239zm10.94 7.137v7.543h3.29v-7.543l5.113-10.175h-3.543l-3.215 6.884-3.214-6.884h-3.544l5.113 10.175zm20.154 1.519l-6.505-11.694h-3.468V71.32h3.29V59.626l6.505 11.694h3.468V53.602h-3.29v11.694zm23.266-2.835c0 2-.405 3.72-1.19 5.113l1.697 1.67-2.304 2.278-1.544-1.519c-1.392 1.013-3.062 1.52-5.011 1.52-3.063 0-5.594-1.19-7.189-4-.785-1.392-1.164-3.088-1.164-5.062 0-1.975.38-3.67 1.164-5.063 1.595-2.81 4.126-3.999 7.189-3.999 1.544 0 2.91.33 4.15.962 2.456 1.24 4.202 4.151 4.202 8.1zm-5.644 5.264l-2.303-2.328 2.303-2.278 1.924 1.949c.253-.734.38-1.595.38-2.607 0-2-.482-3.493-1.444-4.506-.936-1.012-2.126-1.518-3.568-1.518-1.443 0-2.633.506-3.595 1.518-.936 1.013-1.417 2.506-1.417 4.506 0 2 .48 3.493 1.417 4.505.962 1.013 2.152 1.519 3.595 1.519 1.012 0 1.923-.253 2.708-.76zM77.875 47.197h9.237l6.304 7.08H84.18l-6.304-7.08zm24.778 7.08l-6.304 7.079h-9.237l6.304-7.08h9.237z"/></g></g></svg>