<svg width="120" height="120" viewBox="0 0 120 120" xmlns="http://www.w3.org/2000/svg"><title>ADC DAC</title><g fill="none" fill-rule="evenodd"><path d="M.05 32.846c5.233 0 5.233 12.308 10.467 12.308 5.234 0 5.234-12.308 10.468-12.308s5.234 12.308 10.469 12.308c2.433 0 3.735-2.659 4.958-5.505" stroke="#22303F" stroke-width="2"/><path fill="#51C7E1" d="M47.596 28.009H82.12v22.756H47.596L40 39.394z"/><path d="M45.749 24l-9.81 15.009L45.75 54h39.856V24H45.749z" stroke="#22303F" stroke-width="2"/><path d="M57.35 44.538h-2.074l-.755-2.436h-3.29l-.756 2.436h-2.074L51.913 34.2h1.926l3.512 10.338zm-3.378-4.209l-1.096-3.589-1.097 3.59h2.193zm8.06 4.21h-3.244V34.2h3.245c2.445 0 4.83 1.566 4.83 5.17 0 3.603-2.385 5.168-4.83 5.168zm-1.318-8.567v6.794h.711c.904 0 1.645-.192 2.341-.664.712-.473 1.141-1.418 1.141-2.733 0-1.314-.43-2.26-1.14-2.732-.697-.473-1.438-.665-2.342-.665h-.71zm17.1 1.24c-.49-1.993-2.046-3.13-4.298-3.13-1.378 0-2.534.472-3.482 1.403-.948.93-1.422 2.23-1.422 3.884s.474 2.954 1.422 3.885c.948.93 2.104 1.403 3.482 1.403 2.252 0 3.808-1.138 4.297-3.131l-1.733-.444c-.46 1.197-1.304 1.802-2.564 1.802-.844 0-1.556-.295-2.119-.9-.548-.606-.83-1.478-.83-2.615 0-1.137.282-2.008.83-2.614.563-.605 1.275-.9 2.12-.9 1.259 0 2.103.605 2.563 1.801l1.733-.443z" fill="#FFF"/><path stroke="#22303F" stroke-width="2" d="M118.911 45.61h-8.714V32.847h-8.715v12.765h-8.715v-6.382h-6.162"/><g><path d="M119.874 75c-5.234 0-5.234 12.308-10.467 12.308-5.234 0-5.234-12.308-10.468-12.308-5.235 0-5.235 12.308-10.47 12.308-2.413 0-3.714-2.618-4.929-5.438" stroke="#22303F" stroke-width="2"/><path fill="#51C7E1" d="M72.404 91.991H37.88V69.235h34.524L80 80.606z"/><path d="M74.251 96l9.81-15.009L74.25 66H34.396v30h39.856z" stroke="#22303F" stroke-width="2"/><path d="M48.233 86.452H45V76.118h3.233c2.436 0 4.813 1.565 4.813 5.167s-2.377 5.167-4.813 5.167zm-1.314-8.562v6.79h.709c.9 0 1.638-.192 2.332-.664.709-.472 1.137-1.417 1.137-2.731 0-1.314-.428-2.259-1.137-2.731-.694-.472-1.432-.664-2.332-.664h-.709zm15.737 8.562h-2.067l-.753-2.436H56.56l-.753 2.436H53.74l3.5-10.334h1.918l3.499 10.334zm-3.366-4.207l-1.092-3.588-1.093 3.588h2.185zM72.4 79.13c-.488-1.993-2.038-3.13-4.282-3.13-1.373 0-2.524.472-3.469 1.402-.945.93-1.417 2.23-1.417 3.883s.472 2.953 1.417 3.883c.945.93 2.096 1.402 3.47 1.402 2.243 0 3.793-1.137 4.28-3.13l-1.727-.443c-.458 1.196-1.299 1.801-2.554 1.801-.841 0-1.55-.295-2.11-.9-.547-.605-.828-1.476-.828-2.613s.28-2.008.827-2.613c.561-.605 1.27-.9 2.111-.9 1.255 0 2.096.605 2.554 1.8l1.727-.442z" fill="#FFF"/><path stroke="#22303F" stroke-width="2" d="M2 87.764h8.714V75h8.715v12.764h8.715v-6.382h6.162"/></g></g></svg>