<svg width="120" height="120" viewBox="0 0 120 120" xmlns="http://www.w3.org/2000/svg"><title>SDR</title><g fill="none" fill-rule="evenodd"><g transform="translate(0 20)"><path fill="#51C7E1" d="M19 32h17v17H19zM60 34h17v13H60z"/><circle fill="#51C7E1" cx="68.5" cy="10.5" r="3.5"/><circle fill="#51C7E1" cx="69" cy="71" r="4"/><path fill="#51C7E1" d="M103 10.5L95 16V5z"/><g stroke="#22303F" stroke-width="2"><path d="M33.794 37.168a3.391 3.391 0 0 1-3.166 2.14c-1.172 0-2.147-.503-2.756-1.391-.178-.26-.645-1.085-.98-1.51-.624-.792-1.526-1.324-2.624-1.324-1.558 0-2.872 1.034-3.268 2.443M33.794 44.168a3.391 3.391 0 0 1-3.166 2.14c-1.172 0-2.147-.503-2.756-1.391-.178-.26-.645-1.085-.98-1.51-.624-.792-1.526-1.324-2.624-1.324-1.558 0-2.872 1.034-3.268 2.443"/></g><path stroke="#22303F" stroke-width="2" d="M5.678 22.324v18.21h10.983M38.79 40.534h9.907M10.535 23.176L5.678 30.17"/><path fill="#22303F" d="M13.94 41.374l1.21-.84-1.21-.84zM47.53 40.534a1.166 1.166 0 1 1 2.333 0 1.166 1.166 0 0 1-2.332 0"/><path d="M47.53 40.534a1.166 1.166 0 1 1 2.333 0 1.166 1.166 0 0 1-2.332 0z" stroke="#22303F" stroke-width="2"/><path stroke="#22303F" stroke-width="2" d="M61.313 10.63H48.696v59.808h12.617"/><path fill="#22303F" d="M59.864 11.47l1.21-.84-1.21-.84zM59.864 71.279l1.21-.84-1.21-.84z"/><path d="M62 10.729a6.646 6.646 0 1 1 13.292 0 6.646 6.646 0 0 1-13.292 0zM68.907 31.081V17.45" stroke="#22303F" stroke-width="2"/><g stroke="#22303F" stroke-width="2"><path d="M71.533 8.14l-5.205 5.205M66.328 8.14l5.205 5.205"/></g><path d="M62 70.729a6.646 6.646 0 1 1 13.292 0 6.646 6.646 0 0 1-13.292 0zM71.907 67.534l-6 5.838M65.907 67.534l6 5.838M57 50.083h23v-19H57z" stroke="#22303F" stroke-width="2"/><path d="M71.552 23.759l-5.29 3.404M68.907 50.006v12.12" fill="#22303F"/><path d="M68.907 50.006V64" stroke="#22303F" stroke-width="2"/><path d="M66.262 57.328l5.29-3.404" fill="#22303F"/><path stroke="#22303F" stroke-width="2" d="M93.138 19.912l14-9.5-14-9.5zM75.553 10.63h17.458"/><path fill="#22303F" d="M112.18 11.47l1.21-.84-1.21-.84z"/><path stroke="#22303F" stroke-width="2" d="M111.18 11.47l1.21-.84-1.21-.84z"/><path d="M107.132 10.63h5.048" fill="#22303F"/><path d="M106.132 10.63h5.048" stroke="#22303F" stroke-width="2"/><path d="M79.407 13.274l3.404-5.29" fill="#22303F"/><path d="M75.553 70.453h16.453" stroke="#22303F" stroke-width="2"/><path fill="#22303F" d="M112.18 71.294l1.21-.84-1.21-.84z"/><path stroke="#22303F" stroke-width="2" d="M111.18 71.294l1.21-.84-1.21-.84z"/><path d="M107.132 70.453h5.048" fill="#22303F"/><path d="M106.132 70.453h5.048" stroke="#22303F" stroke-width="2"/><path d="M79.407 73.099l3.404-5.29M117.416 71.393l.636-.628.53.537c.07-.203.105-.44.105-.719 0-.552-.133-.963-.398-1.244a1.283 1.283 0 0 0-.984-.419c-.398 0-.728.14-.992.42-.259.28-.392.691-.392 1.243 0 .551.133.963.392 1.243.264.28.594.42.992.42.279 0 .53-.07.747-.21l-.636-.643zm1.865.6l.468.461-.636.629-.426-.42c-.384.28-.845.42-1.382.42-.845 0-1.545-.328-1.984-1.104-.217-.384-.321-.852-.321-1.396 0-.545.104-1.012.32-1.397.44-.775 1.14-1.103 1.985-1.103.426 0 .802.09 1.145.265.677.342 1.16 1.145 1.16 2.235 0 .551-.113 1.027-.329 1.41zM116 13.083h1.074v-5H116z" fill="#22303F"/><path d="M.821 23.176l4.857 6.994M16 52.083h23v-23H16z" stroke="#22303F" stroke-width="2"/></g><path fill="#51C7E1" d="M103 90.583l-8 5.5v-11z"/><path stroke="#22303F" stroke-width="2" d="M93 100.083l14-9.5-14-9.5z"/></g></svg>