<svg xmlns="http://www.w3.org/2000/svg" viewBox="0 0 100 100"><title>Artboard 40</title><path d="M73.55 39.46A5.92 5.92 0 0 0 70 40.63a5.86 5.86 0 0 0-9.75-4.38 5.85 5.85 0 0 0-5.48-3.82 5.92 5.92 0 0 0-3.51 1.17v-9.37a5.86 5.86 0 1 0-11.71 0v26.19a7.38 7.38 0 0 0-2.67-3 7.59 7.59 0 0 0-5.76-1.08l-2.83.61a1.19 1.19 0 0 0-.91 1.38l5.34 25a17.53 17.53 0 0 0 17.4 15.32h11.71A17.56 17.56 0 0 0 79.4 71.08V45.31a5.86 5.86 0 0 0-5.85-5.85zm3.51 31.63a15.2 15.2 0 0 1-15.23 15.22H50.12A15.22 15.22 0 0 1 35 73l-5.07-24 1.71-.35a5.23 5.23 0 0 1 6.26 4.08l.63 3 1.07 6.17a1.17 1.17 0 0 0 2.32-.19V24.23a3.51 3.51 0 0 1 7 0v28.11a1.17 1.17 0 0 0 1.17 1.17 1.16 1.16 0 0 0 1.17-1.17V38.29a3.51 3.51 0 0 1 7 0v14.05a1.17 1.17 0 0 0 1.17 1.17 1.16 1.16 0 0 0 1.17-1.17V40.63a3.51 3.51 0 0 1 7 0v11.71a1.17 1.17 0 0 0 1.17 1.17A1.16 1.16 0 0 0 70 52.34v-7a3.51 3.51 0 1 1 7 0zM38.17 17.2A1.17 1.17 0 0 1 37 18.37H24.58l2.69 2.69a1.17 1.17 0 0 1-.82 2 1.19 1.19 0 0 1-.84-.35L20.93 18a1.17 1.17 0 0 1 0-1.64l4.69-4.69a1.16 1.16 0 0 1 1.66 0 1.13 1.13 0 0 1 0 1.64L24.58 16H37a1.17 1.17 0 0 1 1.17 1.2zM69.45 18l-4.69 4.69a1.14 1.14 0 0 1-.82.35 1.19 1.19 0 0 1-.84-.35 1.17 1.17 0 0 1 0-1.64l2.69-2.69H53.4a1.17 1.17 0 1 1 0-2.34h12.39l-2.69-2.68a1.17 1.17 0 0 1 0-1.64 1.16 1.16 0 0 1 1.66 0l4.69 4.69a1.13 1.13 0 0 1 0 1.61z"/></svg>