<svg width="120" height="120" viewBox="0 0 120 120" xmlns="http://www.w3.org/2000/svg"><title>sd card</title><g fill="none" fill-rule="evenodd"><path d="M28.473 3.408L10.408 21.325v95.252h97.518V3.407H28.473zM27.48 1h82.853v117.985H8V20.322L27.481 1z" fill="#22303F" fill-rule="nonzero"/><path d="M12.816 51.565V23.319L30.463 5.816h75.055V34.71h-4.816v30.098h4.816v49.356H12.816V59.992h4.815v-8.427h-4.815zm72.235-39.73v18.06h9.632v-18.06H85.05zm-15.65 0v18.06h9.63v-18.06h-9.63zm-15.652 0v18.06h9.632v-18.06h-9.632zm-15.65 0v18.06h9.63v-18.06H38.1zm-15.652 9.632v18.059h9.632v-18.06h-9.632z" fill="#51C7E1" fill-rule="nonzero"/><path d="M39.98 80.786v-.043l3.394-.471v.3c0 .685.172 1.328.516 1.928.344.6.845 1.086 1.504 1.457.773.457 1.719.686 2.836.686 1.031 0 1.905-.215 2.621-.643a4.326 4.326 0 0 0 1.59-1.543c.43-.8.645-1.664.645-2.592 0-.929-.258-1.85-.773-2.764-.717-1.228-2.25-2.5-4.599-3.814-3.18-1.828-5.27-3.613-6.274-5.356-.83-1.428-1.246-2.928-1.246-4.5 0-1.513.358-2.899 1.074-4.156a7.08 7.08 0 0 1 2.665-2.614c1.26-.742 2.779-1.114 4.555-1.114 1.89 0 3.51.386 4.856 1.157 1.06.6 1.89 1.421 2.492 2.464a6.541 6.541 0 0 1 .903 3.32v.044l-3.395.471v-.3c0-.685-.172-1.328-.516-1.928-.344-.6-.845-1.086-1.504-1.457-.773-.457-1.719-.686-2.836-.686-1.031 0-1.905.215-2.621.643a4.326 4.326 0 0 0-1.59 1.543c-.43.8-.645 1.664-.645 2.592 0 .929.258 1.85.774 2.764.716 1.228 2.248 2.5 4.598 3.814 3.18 1.828 5.271 3.613 6.274 5.356.83 1.428 1.246 2.928 1.246 4.5 0 1.513-.358 2.899-1.074 4.156a7.08 7.08 0 0 1-2.665 2.614c-1.26.742-2.779 1.114-4.555 1.114-1.89 0-3.51-.386-4.856-1.157a6.545 6.545 0 0 1-2.492-2.464 6.541 6.541 0 0 1-.903-3.321zm21.7-24.896h7.091c1.834 0 3.424.386 4.77 1.157 1.318.771 2.393 1.871 3.223 3.3 1.06 1.856 1.59 4.127 1.59 6.813v8.955c0 2.686-.53 4.957-1.59 6.814-.83 1.428-1.905 2.528-3.223 3.299-1.346.771-2.936 1.157-4.77 1.157h-7.09V55.89zm7.091 28.41c1.06 0 2.006-.243 2.837-.729.83-.485 1.532-1.2 2.105-2.142.802-1.4 1.204-3.171 1.204-5.314V67.16c0-2.143-.402-3.914-1.204-5.314-.573-.943-1.275-1.657-2.105-2.142-.831-.486-1.777-.729-2.837-.729H65.12V84.3h3.652z" fill="#FFF"/></g></svg>