<svg width="167" height="106" viewBox="0 0 167 106" xmlns="http://www.w3.org/2000/svg"><title>Group 3</title><g transform="translate(.988 .982)" fill="none" fill-rule="evenodd"><path d="M141.84 76.755l21.923 21.924a2.965 2.965 0 1 1-4.193 4.193l-22.124-22.124" stroke="#22303F" stroke-width="2"/><ellipse stroke="#22303F" stroke-width="2" cx="120.565" cy="59.881" rx="26.682" ry="26.505"/><ellipse stroke="#22303F" stroke-width="2" cx="120.565" cy="59.881" rx="21.741" ry="21.596"/><ellipse stroke="#22303F" stroke-width="2" cx="7.906" cy="53.009" rx="7.906" ry="7.853"/><ellipse stroke="#22303F" stroke-width="2" cx="49.412" cy="25.523" rx="7.906" ry="7.853"/><ellipse stroke="#22303F" stroke-width="2" cx="73.129" cy="66.752" rx="7.906" ry="7.853"/><ellipse stroke="#22303F" stroke-width="2" cx="97.835" cy="17.67" rx="7.906" ry="7.853"/><ellipse stroke="#22303F" stroke-width="2" cx="155.153" cy="7.853" rx="7.906" ry="7.853"/><ellipse stroke="#22303F" stroke-width="2" cx="122.541" cy="58.899" rx="7.906" ry="7.853"/><ellipse fill="#FFBD61" cx="7.906" cy="53.009" rx="4.941" ry="4.908"/><ellipse fill="#FFBD61" cx="49.412" cy="25.523" rx="4.941" ry="4.908"/><ellipse fill="#FFBD61" cx="73.129" cy="66.752" rx="4.941" ry="4.908"/><ellipse fill="#FFBD61" cx="97.835" cy="17.67" rx="4.941" ry="4.908"/><ellipse fill="#FFBD61" cx="155.153" cy="7.853" rx="4.941" ry="4.908"/><ellipse fill="#FFBD61" cx="122.541" cy="58.899" rx="4.941" ry="4.908"/><path d="M14.48 48.215l27.536-19.201M69.404 59.665L53.192 32.294M77.483 59.766L94.08 25.024M118.275 52.376l-5.462-9.479M107.307 33.342l-5.023-8.717M127.109 52.786l4.769-7.515M138.298 35.154L151.24 14.76" stroke="#22303F" stroke-width="2"/></g></svg>