<svg width="172" height="171" viewBox="0 0 172 171" xmlns="http://www.w3.org/2000/svg"><title>Group 8</title><g fill="none" fill-rule="evenodd"><path stroke="#22303F" stroke-width="2" d="M18.782 18.78h126.529V145.3H18.782z"/><path fill="#FFBD61" d="M25.701 25.699h112.69v112.682H25.701z"/><path d="M88.966 0h1.977v18.78h-1.977V0zM57.333 0h1.977v18.78h-1.977V0zm63.265 0h1.977v18.78h-1.977V0zm-79.08 0h1.976v18.78h-1.977V0zm63.264 0h1.977v18.78h-1.977V0zM73.149 0h1.977v18.78H73.15V0zm63.265 0h1.977v18.78h-1.977V0zM25.7 0h1.977v18.78h-1.977V0zM88.966 145.3h1.977v18.78h-1.977V145.3zm-31.633 0h1.977v18.78h-1.977V145.3zm63.265 0h1.977v18.78h-1.977V145.3zm-79.08 0h1.976v18.78h-1.977V145.3zm63.264 0h1.977v18.78h-1.977V145.3zm-31.633 0h1.977v18.78H73.15V145.3zm63.265 0h1.977v18.78h-1.977V145.3zm-110.713 0h1.977v18.78h-1.977V145.3zM.495 75.615v-1.977h18.78v1.977H.495zm0 31.632v-1.977h18.78v1.977H.495zm0-63.264v-1.977h18.78v1.977H.495zm0 79.08v-1.977h18.78v1.977H.495zm0-63.264v-1.977h18.78v1.977H.495zm0 31.632v-1.977h18.78v1.977H.495zm0-63.264V26.19h18.78v1.977H.495zm0 110.713v-1.978h18.78v1.978H.495zM145.805 75.615v-1.977h18.78v1.977h-18.78zm0 31.632v-1.977h18.78v1.977h-18.78zm0-63.264v-1.977h18.78v1.977h-18.78zm0 79.08v-1.977h18.78v1.977h-18.78zm0-63.264v-1.977h18.78v1.977h-18.78zm0 31.632v-1.977h18.78v1.977h-18.78zm0-63.264V26.19h18.78v1.977h-18.78zm0 110.713v-1.978h18.78v1.978h-18.78z" fill="#22303F"/><ellipse stroke="#22303F" stroke-width="2" fill="#F5F5F5" cx="126.529" cy="125.532" rx="43.494" ry="43.491"/><path d="M94.764 108.958a.988.988 0 1 1 .989-1.712.988.988 0 0 1-.989 1.712zm0 34.233a.988.988 0 1 1 .989-1.712.988.988 0 0 1-.989 1.712zm62.276-34.233a.988.988 0 1 1 .988-1.712.988.988 0 0 1-.988 1.712zm0 35.222a.988.988 0 1 1 .988-1.712.988.988 0 0 1-.988 1.712zm-48.799-49.422a.988.988 0 1 1 1.712-.989.988.988 0 0 1-1.712.989zm53.874 31.762a.988.988 0 1 1 0-1.977.988.988 0 0 1 0 1.977zm-71.172 0a.988.988 0 1 1 0-1.977.988.988 0 0 1 0 1.977zm35.586-35.584a.988.988 0 1 1 0-1.977.988.988 0 0 1 0 1.977zm19.143 4.58a.988.988 0 1 1 0-1.976.988.988 0 0 1 0 1.977z" fill="#22303F"/><g transform="rotate(62 -12.061 178.462)"><ellipse stroke="#22303F" stroke-width="2" fill="#F5F5F5" cx="6.268" cy="31.245" rx="5.931" ry="5.931"/><ellipse fill="#FFBD61" cx="6.268" cy="31.245" rx="2.966" ry="2.965"/><g stroke="#22303F" stroke-width="2"><path d="M6.268 25.376V.604M6.268 49.412V37.176"/></g></g></g></svg>