<svg width="120" height="120" viewBox="0 0 120 120" xmlns="http://www.w3.org/2000/svg"><title>jtag</title><g transform="translate(4.156 8.225)" fill="none" fill-rule="evenodd"><path stroke="#22303F" stroke-width="2" d="M53.524 65.972h14.938V51.035H53.524zM89.622 42.322h14.937V27.385H89.622z"/><path fill="#51C7E1" d="M57.259 62.238h7.468v-7.469H57.26zM93.357 38.587h7.468V31.12h-7.468z"/><path d="M37.343 57.259V97.09M97.09 42.322v17.426M97.09 7.469v19.916M110.783 97.09l1.867-1.244-1.867-1.245zM37.343 58.503h17.426M68.462 58.503h29.874" stroke="#22303F" stroke-width="2"/><circle stroke="#22303F" stroke-width="2" cx="7.469" cy="7.469" r="7.469"/><circle fill="#51C7E1" cx="7.469" cy="7.469" r="3.734"/><path d="M36.098 95.846h33.608M84.643 95.846h26.14M69.706 103.315h14.937V88.378H69.706z" stroke="#22303F" stroke-width="2"/><path fill="#51C7E1" d="M73.44 99.218h7.47v-7.469h-7.47z"/><path d="M58.503 7.469h39.833M14.937 7.469h28.63M43.566 14.937h14.937V0H43.566z" stroke="#22303F" stroke-width="2"/><path fill="#51C7E1" d="M47.3 11.203h7.47V3.734H47.3z"/></g></svg>