<svg width="171" height="170" viewBox="0 0 171 170" xmlns="http://www.w3.org/2000/svg"><title>Group 10</title><g fill="none" fill-rule="evenodd"><path stroke="#22303F" stroke-width="2" d="M40.526 62.267h88.96v19.767h-88.96z"/><path fill="#FFBD61" d="M43.491 65.232h83.029V79.07H43.491z"/><path fill="#FFF" d="M48.434 70.174h29.653v3.953H48.434zM117.624 70.174h3.954v3.953h-3.954zM109.717 70.174h3.954v3.953h-3.954zM101.809 70.174h3.954v3.953h-3.954z"/><path stroke="#22303F" stroke-width="2" d="M40.526 87.965h88.96v19.767h-88.96z"/><path fill="#FFBD61" d="M43.491 90.93h83.029v13.837H43.491z"/><path fill="#FFF" d="M48.434 95.872h29.653v3.953H48.434zM117.624 95.872h3.954v3.953h-3.954zM109.717 95.872h3.954v3.953h-3.954zM101.809 95.872h3.954v3.953h-3.954z"/><g transform="translate(77.098 .988)"><ellipse stroke="#22303F" stroke-width="2" cx="7.908" cy="7.907" rx="7.908" ry="7.907"/><ellipse fill="#FFBD61" cx="7.908" cy="7.907" rx="2.965" ry="2.965"/><path d="M6.92 18.78h1.976v1.976H6.919v-1.977zm0 3.953h1.976v1.976H6.919v-1.976zm0 3.953h1.976v1.977H6.919v-1.977zm0 3.954h1.976v1.976H6.919V30.64zm0 3.953h1.976v1.977H6.919v-1.977zm0 3.954h1.976v1.976H6.919v-1.976z" fill="#22303F"/></g><g transform="rotate(-90 47.443 45.959)"><ellipse stroke="#22303F" stroke-width="2" cx="7.908" cy="7.907" rx="7.908" ry="7.907"/><ellipse fill="#FFBD61" cx="7.908" cy="7.907" rx="2.965" ry="2.965"/><path d="M6.92 18.78h1.976v1.976H6.919v-1.977zm0 3.953h1.976v1.976H6.919v-1.976zm0 7.907h1.976v1.976H6.919V30.64zm0-3.954h1.976v1.977H6.919v-1.977z" fill="#22303F"/></g><g><g transform="rotate(-180 46.457 84.506)"><ellipse stroke="#22303F" stroke-width="2" cx="7.908" cy="7.907" rx="7.908" ry="7.907"/><ellipse fill="#FFBD61" cx="7.908" cy="7.907" rx="2.965" ry="2.965"/><path d="M6.92 18.78h1.976v1.976H6.919v-1.977zm0 3.953h1.976v1.976H6.919v-1.976zm0 3.953h1.976v1.977H6.919v-1.977zm0 3.954h1.976v1.976H6.919V30.64zm0 3.953h1.976v1.977H6.919v-1.977zm0 3.954h1.976v1.976H6.919v-1.976z" fill="#22303F"/></g></g><g transform="rotate(90 45.965 123.551)"><ellipse stroke="#22303F" stroke-width="2" cx="7.908" cy="7.907" rx="7.908" ry="7.907"/><ellipse fill="#FFBD61" cx="7.908" cy="7.907" rx="2.965" ry="2.965"/><path d="M6.92 18.78h1.976v1.976H6.919v-1.977zm0 3.953h1.976v1.976H6.919v-1.976zm0 3.953h1.976v1.977H6.919v-1.977zm0 3.954h1.976v1.976H6.919V30.64z" fill="#22303F"/></g><g><g transform="rotate(-45 46.696 -7.966)"><ellipse stroke="#22303F" stroke-width="2" cx="8.048" cy="8.755" rx="7.908" ry="7.907"/><ellipse fill="#FFBD61" cx="8.048" cy="8.755" rx="2.965" ry="2.965"/><path d="M7.06 19.627h1.976v1.977H7.06v-1.977zm0 3.953h1.976v1.977H7.06V23.58zm0 3.954h1.976v1.977H7.06v-1.977zm0 3.953h1.976v1.977H7.06v-1.977zm0 3.954h1.976v1.977H7.06V35.44z" fill="#22303F"/></g><g transform="rotate(135 46.705 100.368)"><ellipse stroke="#22303F" stroke-width="2" cx="8.755" cy="8.047" rx="7.908" ry="7.907"/><ellipse fill="#FFBD61" cx="8.755" cy="8.047" rx="2.965" ry="2.965"/><path d="M7.767 18.92h1.977v1.976H7.767V18.92zm0 3.953h1.977v1.977H7.767v-1.977zm0 3.954h1.977v1.976H7.767v-1.976zm0 3.953h1.977v1.977H7.767V30.78zm0 3.954h1.977v1.976H7.767v-1.976z" fill="#22303F"/></g></g><g><g transform="rotate(45 46.711 176.972)"><ellipse stroke="#22303F" stroke-width="2" cx="8.755" cy="8.755" rx="7.908" ry="7.907"/><ellipse fill="#FFBD61" cx="8.755" cy="8.755" rx="2.965" ry="2.965"/><path d="M7.767 19.627h1.977v1.977H7.767v-1.977zm0 3.953h1.977v1.977H7.767V23.58zm0 3.954h1.977v1.977H7.767v-1.977zm0 3.953h1.977v1.977H7.767v-1.977zm0 3.954h1.977v1.977H7.767V35.44z" fill="#22303F"/></g><g transform="rotate(-135 46.703 68.638)"><ellipse stroke="#22303F" stroke-width="2" cx="8.048" cy="8.047" rx="7.908" ry="7.907"/><ellipse fill="#FFBD61" cx="8.048" cy="8.047" rx="2.965" ry="2.965"/><path d="M7.06 18.92h1.976v1.976H7.06V18.92zm0 3.953h1.976v1.977H7.06v-1.977zm0 3.954h1.976v1.976H7.06v-1.976zm0 3.953h1.976v1.977H7.06V30.78zm0 3.954h1.976v1.976H7.06v-1.976z" fill="#22303F"/></g></g></g></svg>