<svg width="120" height="120" viewBox="0 0 120 120" xmlns="http://www.w3.org/2000/svg"><title>ddr3</title><g fill="none" fill-rule="evenodd"><path fill="#51C7E1" d="M1 30.224h117.372v59.183H1z"/><path d="M19.953 24.49V7.14c0-1.737-1.392-3.14-3.108-3.14-1.712 0-3.108 1.406-3.108 3.14v17.35h6.216zm51.644 0V7.14c0-1.737-1.392-3.14-3.108-3.14-1.712 0-3.108 1.406-3.108 3.14v17.35h6.216zm-34.038 0V7.14c0-1.737-1.392-3.14-3.108-3.14-1.712 0-3.108 1.406-3.108 3.14v17.35h6.216zm51.644 0V7.14c0-1.737-1.393-3.14-3.108-3.14-1.712 0-3.108 1.406-3.108 3.14v17.35h6.216zm-35.212 0V7.14C53.991 5.404 52.6 4 50.883 4c-1.712 0-3.108 1.406-3.108 3.14v17.35h6.216zm51.644 0V7.14c0-1.737-1.393-3.14-3.108-3.14-1.712 0-3.108 1.406-3.108 3.14v17.35h6.216zM99.419 95.143v17.349c0 1.737 1.393 3.14 3.108 3.14 1.712 0 3.108-1.406 3.108-3.14v-17.35h-6.216zm-51.644 0v17.349c0 1.737 1.393 3.14 3.108 3.14 1.712 0 3.108-1.406 3.108-3.14v-17.35h-6.216zm34.038 0v17.349c0 1.737 1.393 3.14 3.108 3.14 1.712 0 3.108-1.406 3.108-3.14v-17.35h-6.216zm-51.644 0v17.349c0 1.737 1.393 3.14 3.108 3.14 1.712 0 3.108-1.406 3.108-3.14v-17.35H30.17zm35.212 0v17.349c0 1.737 1.393 3.14 3.108 3.14 1.712 0 3.108-1.406 3.108-3.14v-17.35h-6.216zm-51.644 0v17.349c0 1.737 1.393 3.14 3.108 3.14 1.712 0 3.108-1.406 3.108-3.14v-17.35h-6.216z" stroke="#22303F" stroke-width="2"/><path d="M29.984 70.706H23.3V49.163h6.683c5.035 0 9.948 3.262 9.948 10.771 0 7.51-4.913 10.772-9.948 10.772zm-2.716-17.85v14.157h1.465c1.861 0 3.387-.4 4.821-1.385 1.465-.985 2.35-2.954 2.35-5.694 0-2.739-.885-4.708-2.35-5.693-1.434-.985-2.96-1.385-4.821-1.385h-1.465zM50.1 70.706h-6.683V49.163h6.683c5.036 0 9.949 3.262 9.949 10.771 0 7.51-4.913 10.772-9.949 10.772zm-2.716-17.85v14.157h1.465c1.862 0 3.387-.4 4.822-1.385 1.465-.985 2.35-2.954 2.35-5.694 0-2.739-.885-4.708-2.35-5.693-1.435-.985-2.96-1.385-4.822-1.385h-1.465zm30.432 2.431c0 2.863-1.434 5.017-3.997 5.786l5.92 9.633h-4.425l-5.737-9.294h-2.075v9.294h-3.968V49.163h7.782c4.15 0 6.5 2.431 6.5 6.124zM67.503 57.72h3.845c1.678 0 2.502-.8 2.502-2.432 0-1.63-.824-2.43-2.502-2.43h-3.845v4.862zm14.136 7.016c.183 1.816.915 3.324 2.227 4.494 1.313 1.138 2.96 1.723 4.914 1.723 2.105 0 3.814-.646 5.187-1.97 1.374-1.323 2.045-3.077 2.045-5.262 0-3.816-2.045-6.401-5.31-6.401-.213 0-.488.03-.854.061l5.035-6.863v-1.354H82.646v3.57h6.805l-4.028 5.57 1.526 2.155a3.971 3.971 0 0 1 1.861-.462c1.984 0 3.357 1.354 3.357 3.785 0 2.185-1.404 3.601-3.387 3.601-1.8 0-2.93-1.046-3.449-3.139l-3.692.492z" fill="#FFF"/></g></svg>