<svg width="120" height="120" viewBox="0 0 120 120" xmlns="http://www.w3.org/2000/svg"><title>digital communications</title><g transform="translate(14 6)" fill="none" fill-rule="evenodd"><circle stroke="#22303F" stroke-width="2" cx="45.934" cy="45.934" r="8.106"/><path fill="#51C7E1" d="M62.147 105.028l-16.213-40.53-16.212 40.53z"/><path stroke="#22303F" stroke-width="2" d="M67.55 108.081L46.25 54.826l-.608-.053-21.323 53.308z"/><path d="M63.894 64.275a25.592 25.592 0 0 0 7.71-18.34c0-14.177-11.493-25.67-25.67-25.67-14.176 0-25.669 11.493-25.669 25.67 0 7.2 2.965 13.708 7.74 18.37" stroke="#22303F" stroke-width="2"/><path d="M71.903 83.83C83.961 75.55 91.87 61.665 91.87 45.933 91.869 20.566 71.303 0 45.934 0 20.566 0 0 20.566 0 45.934c0 15.708 7.884 29.574 19.91 37.857" stroke="#22303F" stroke-width="2"/></g></svg>