<svg width="120" height="120" viewBox="0 0 120 120" xmlns="http://www.w3.org/2000/svg"><title>Video input</title><g fill="none" fill-rule="evenodd"><path stroke="#22303F" stroke-width="2" d="M2 13h115.383v69.665H2z"/><path fill="#51C7E1" d="M5.266 16.266h108.852V79.4H5.266z"/><path d="M38.574 55.452v-6.836h6.096v6.836h2.83V40.213h-2.83v5.79h-6.096v-5.79h-2.83v15.24h2.83zm16.59 0h-4.768V40.213h4.767c3.592 0 7.097 2.308 7.097 7.62s-3.505 7.62-7.097 7.62zm-1.938-12.627V52.84h1.045c1.328 0 2.416-.283 3.44-.98 1.044-.697 1.676-2.09 1.676-4.027 0-1.938-.632-3.331-1.677-4.028-1.023-.697-2.111-.98-3.44-.98h-1.044zm14.651 12.627v-9.405l2.917 8.012h2.047l2.917-8.012v9.405h2.83V40.213H75.41l-3.592 9.514-3.592-9.514h-3.179v15.24h2.83zm13.607-15.239v15.24h2.83v-15.24h-2.83z" fill="#FFF"/><path stroke="#22303F" stroke-width="2" d="M48.806 82.665h21.77v17.416h-21.77zM34.656 100.082h50.072v6.531H34.656z"/></g></svg>