<svg width="120" height="120" viewBox="0 0 120 120" xmlns="http://www.w3.org/2000/svg"><title>Image capture</title><g transform="translate(2 30)" fill="none" fill-rule="evenodd"><rect fill="#51C7E1" x="3.605" y="3.605" width="79.319" height="52.879" rx="2"/><rect stroke="#22303F" stroke-width="2" width="86.785" height="60.09" rx="5"/><path stroke="#22303F" stroke-width="2" d="M86.785 17.06l28.588-8.912v43.794l-28.588-8.911z"/><path d="M25.238 20.44v-.01h37.256v.01c5.54.222 9.965 4.774 9.965 10.359 0 5.726-4.653 10.368-10.39 10.368-5.739 0-10.392-4.642-10.392-10.368 0-3.201 1.454-6.063 3.738-7.965h-23.95a10.337 10.337 0 0 1 3.738 7.965c0 5.726-4.653 10.368-10.39 10.368-5.739 0-10.391-4.642-10.391-10.368 0-5.727 4.652-10.368 10.39-10.368.143 0 .285.002.426.008zm-.426 18.323c4.412 0 7.988-3.566 7.988-7.964 0-4.398-3.576-7.965-7.988-7.965-4.411 0-7.987 3.567-7.987 7.965s3.576 7.964 7.987 7.964zm37.256 0c4.412 0 7.987-3.566 7.987-7.964 0-4.398-3.575-7.965-7.987-7.965s-7.987 3.567-7.987 7.965 3.575 7.964 7.987 7.964z" fill="#22303F" fill-rule="nonzero"/></g></svg>