<svg width="120" height="120" viewBox="0 0 120 120" xmlns="http://www.w3.org/2000/svg" xmlns:xlink="http://www.w3.org/1999/xlink"><title>transceiver port</title><defs><path d="M14.423 7.03C9.193 3.37 6.388 2.19.66 2.19V0c6.264 0 9.455 1.34 15.02 5.236 5.23 3.662 8.035 4.84 13.763 4.84s8.533-1.178 13.762-4.84C48.716 1.377 51.9.026 58.047 0c6.441 0 9.632 1.34 15.196 5.236 5.23 3.662 8.035 4.84 13.764 4.84 2.747 0 4.823-.271 6.815-.957a16.405 16.405 0 0 0 1.676-.682c1.601-.748 3.256-1.79 5.271-3.2C106.333 1.34 109.524 0 115.79 0v2.19c-5.729 0-8.534 1.179-13.764 4.84-2.286 1.601-4.171 2.77-6.034 3.593-3.543 3.715-6.287 8.072-10.248 15.66 4.265 8.17 7.181 12.697 11.114 16.537 1.795 1.753 3.709 3.207 5.776 4.357 4.577-1.282 7.638-1.73 13.155-1.73v2.191c-4.216 0-6.9.265-10.038.995 3.024 1.159 6.3 1.748 10.038 1.748v2.19c-5.098 0-9.473-1.033-13.406-3.045l-.674.198c-5.489 1.625-8.586 2.175-14.701 2.175-6.116 0-9.213-.55-14.703-2.175a90.26 90.26 0 0 0-2.467-.698c-3.326 2.273-7.065 3.47-11.406 3.536l-.384.003c-4.595-.022-8.378-1.193-11.74-3.457a94.96 94.96 0 0 0-2.162.616c-5.49 1.625-8.587 2.175-14.702 2.175-6.116 0-9.213-.55-14.703-2.175-.268-.08-.53-.157-.787-.23C10.005 51.526 5.786 52.57.66 52.57v-2.19c3.766 0 6.886-.598 9.928-1.774-3.092-.71-5.762-.969-9.928-.969v-2.19c5.47 0 8.525.44 13.038 1.696 2.044-1.145 3.938-2.588 5.716-4.324 3.895-3.803 6.792-8.28 10.99-16.3-4.146-7.962-6.953-12.401-10.69-16.228-1.62-.805-3.304-1.87-5.29-3.262zm17.21 17.118l.863-1.67c3.051-5.892 5.199-9.628 7.484-12.616-3.254 1.743-6.138 2.405-10.537 2.405-2.116 0-3.882-.153-5.507-.506 2.521 3.145 4.809 6.921 7.698 12.387zm26.2 26.226h.275c3.238-.008 6.088-.697 8.672-2.057-2.556-.492-5.016-.679-8.556-.679-3.682 0-6.195.202-8.863.74 2.53 1.308 5.317 1.976 8.473 1.996zm.391-4.926c4.682 0 7.594.322 11.166 1.202a23.584 23.584 0 0 0 2.881-2.6c3.167-3.344 5.56-7.246 9.559-14.97l1.445-2.798-1.445-2.796c-4-7.725-6.392-11.627-9.559-14.97-3.957-4.179-8.446-6.304-14.135-6.325-5.69.021-10.179 2.146-14.136 6.325-3.167 3.343-5.56 7.245-9.558 14.97-.116.223-1.104 2.137-1.57 3.035.503.97 1.225 2.37 1.322 2.558 4 7.725 6.392 11.627 9.559 14.97a23.465 23.465 0 0 0 2.987 2.681c3.72-.94 6.664-1.282 11.484-1.282zm-16.062.107c-3.353-3.54-5.821-7.565-9.913-15.469l-.618-1.197c-3.927 7.381-6.812 11.715-10.687 15.499a30.363 30.363 0 0 1-4.397 3.58c4.583 1.302 7.471 1.74 12.896 1.74 5.877 0 8.776-.514 14.08-2.085l.612-.18a27.072 27.072 0 0 1-1.973-1.888zm44.845-33.288c-4.537 0-7.462-.704-10.844-2.571 2.334 3.015 4.504 6.78 7.612 12.782l.74 1.434c2.8-5.28 5.038-8.97 7.49-12.048-1.485.28-3.1.403-4.998.403zm-14.08 35.356c5.303 1.57 8.202 2.086 14.08 2.086 5.375 0 8.26-.431 12.77-1.706a30.33 30.33 0 0 1-4.45-3.615c-3.916-3.824-6.821-8.21-10.812-15.735l-.74 1.433c-4.092 7.904-6.56 11.929-9.913 15.47-.608.641-1.23 1.24-1.866 1.796.302.087.612.177.93.271z" id="a"/></defs><g fill="none" fill-rule="evenodd"><g fill-rule="nonzero" transform="translate(2 34)"><use fill="#22303F" fill-rule="evenodd" xlink:href="#a"/><path stroke="#51C7E1" stroke-width="2" d="M96.58 11.455c-3.205 3.394-5.805 7.389-9.708 14.827 4.263 8.124 7.053 12.277 10.684 15.823 1.646 1.607 3.375 2.935 5.21 3.997 4.57-1.254 7.707-1.654 13.022-1.654h1v4.19h-1c-2.173 0-3.923.07-5.537.24 1.742.336 3.577.503 5.537.503h1v4.19h-1c-5.04 0-9.47-.983-13.503-2.975l-.293.087c-5.844 1.73-9.019 2.216-14.985 2.216-5.967 0-9.142-.486-14.987-2.217a96.004 96.004 0 0 0-2.004-.572c-3.428 2.24-7.244 3.386-11.576 3.452l-.398.003c-4.548-.022-8.422-1.13-11.907-3.373-.525.145-1.088.307-1.706.49-5.845 1.731-9.02 2.217-14.986 2.217-5.967 0-9.141-.486-14.986-2.217l-.404-.118C9.977 52.595 5.687 53.57.66 53.57h-1v-4.19h1c1.962 0 3.755-.166 5.473-.51-1.595-.164-3.328-.233-5.473-.233h-1v-4.19h1c5.273 0 8.403.395 12.903 1.621 1.813-1.056 3.523-2.373 5.152-3.964 3.6-3.514 6.372-7.628 10.56-15.587-4.1-7.834-6.767-11.903-10.16-15.408-1.543-.78-3.182-1.802-5.265-3.26C8.54 4.133 5.947 3.19.66 3.19h-1V-1h1C6.885-1 10.253.216 16.253 4.417c5.309 3.717 7.903 4.66 13.19 4.66 5.286 0 7.88-.943 13.189-4.66C48.582.251 51.935-.975 58.047-1c6.383 0 9.756 1.207 15.77 5.417 5.308 3.717 7.903 4.66 13.19 4.66 2.7 0 4.65-.27 6.49-.904a15.366 15.366 0 0 0 1.578-.642c1.442-.674 2.988-1.62 5.12-3.114 6-4.2 9.368-5.417 15.593-5.417h1v4.19h-1c-5.286 0-7.88.943-13.19 4.66-2.43 1.701-4.255 2.807-6.018 3.605zm-70.357 1.669a46.14 46.14 0 0 0-1.507-1.989l-.992 1.603c.79.172 1.615.3 2.499.386zm10.9-.924a21.282 21.282 0 0 0 3.33-1.456l-1.267-1.49a44.84 44.84 0 0 0-2.064 2.946zM31.618 22l-.01.02c-.039.073-.68 1.314-.864 1.67l.889.459.884-.467c-.307-.582-.607-1.142-.9-1.682zm0 0c-2.017-3.725-3.709-6.52-5.396-8.875a32.98 32.98 0 0 0 3.22.143c3.047 0 5.42-.312 7.68-1.067-1.561 2.416-3.255 5.455-5.504 9.799zM62.81 48.79c-1.345-.106-2.824-.153-4.587-.153-1.902 0-3.474.055-4.907.18 1.42.361 2.92.546 4.523.556h.265c1.671-.004 3.233-.198 4.706-.583zm-15.845-3.147a54.41 54.41 0 0 0-.47.117l.843.168a19.753 19.753 0 0 1-.373-.285zM33.998 26.522l-.237-.46v.92l.237-.46zm48.151-.24l.238.46v-.92l-.238.46zM69.157 45.565a19.93 19.93 0 0 1-.371.288l.843-.173c-.159-.04-.316-.078-.472-.115zm-22.19.079a22.914 22.914 0 0 1-2.488-2.282c-2.969-3.135-5.262-6.755-9.397-14.742l-.897-1.738-.002-.002-.185-.358.433-.837.001-.002.898-1.738c4.135-7.987 6.428-11.608 9.396-14.742 3.847-4.061 8.102-5.992 13.413-6.012 5.304.02 9.56 1.95 13.406 6.012 2.969 3.134 5.262 6.755 9.397 14.742l.897 1.738a195668648.43 195668648.43 0 0 0 .31.6l-.308.597-.002.002-.897 1.738c-4.135 7.987-6.428 11.607-9.397 14.742a23.038 23.038 0 0 1-2.388 2.203c-3.469-.82-6.41-1.117-10.933-1.117-4.653 0-7.635.314-11.258 1.196zm-4.81 1.335c.436.429.877.836 1.324 1.222l.654-.757-.28-.96-.616.18c-.373.11-.733.215-1.082.315zm-23.316.57c-.64-.16-1.31-.341-2.02-.543l.28 1.794c.59-.393 1.17-.81 1.74-1.252zM31.613 31.03c.294-.539.594-1.096.9-1.672l-.882-.47-.889.46a3372.791 3372.791 0 0 0 .87 1.682zM42.157 46.98c-4.773 1.36-7.546 1.73-12.714 1.73-4.39 0-7.074-.277-10.602-1.16a32.534 32.534 0 0 0 2.802-2.446c3.553-3.47 6.319-7.383 9.97-14.072 4.17 8.023 6.588 11.797 9.823 15.212.239.252.48.497.721.736zm47.615-33.815c.857-.069 1.655-.174 2.419-.318l-.968-1.605c-.488.612-.969 1.25-1.45 1.923zm-5.24 8.601c-.293.54-.593 1.098-.9 1.678l.883.469.889-.46-.741-1.433-.131-.254zm-5.433-9.643a44.13 44.13 0 0 0-2.145-3.038L75.68 10.57a22 22 0 0 0 3.419 1.551zm10.673 1.042c-1.643 2.298-3.292 5.015-5.24 8.601-2.21-4.26-3.886-7.255-5.433-9.643 2.331.812 4.761 1.145 7.908 1.145.995 0 1.91-.034 2.765-.103zm-15.81 33.72c4.978 1.437 7.759 1.825 13.045 1.825 4.338 0 7.01-.272 10.466-1.127a32.502 32.502 0 0 1-2.845-2.479c-3.592-3.508-6.378-7.465-10.096-14.304-4.245 8.182-6.678 11.996-9.944 15.444-.207.219-.416.433-.626.641z"/></g><g stroke="#22303F" stroke-width="2"><path d="M2.66 35.095c14.391 0 14.391 10.076 28.783 10.076 14.39 0 14.39-10.076 28.781-10.076 14.391 0 14.391 10.076 28.783 10.076 14.39 0 14.39-10.076 28.781-10.076M2.66 80.543c14.391 0 14.391 4.261 28.783 4.261 14.39 0 14.39-4.261 28.781-4.261 14.391 0 14.391 4.261 28.783 4.261 14.39 0 14.39-4.261 28.781-4.261M2.42 85.476c34.89 0 29.42-50.38 57.804-50.38M117.852 85.476c-34.89 0-29.42-50.38-57.805-50.38M23.228 43.533c14.007 14.344 16.47 41.943 37.479 41.943M97.646 43.533c-14.007 14.344-16.47 41.943-37.479 41.943"/></g></g></svg>