<svg width="120" height="120" viewBox="0 0 120 120" xmlns="http://www.w3.org/2000/svg"><title>robot</title><g fill="none" fill-rule="evenodd"><path stroke="#22303F" stroke-width="2" d="M34 20h37v17H34z"/><path stroke="#22303F" stroke-width="2" d="M37.423 34.253L57.21 78.695l-15.53 6.914-19.787-44.442z"/><g stroke="#22303F" stroke-width="2"><path d="M92.12 6.807L71.393 21.321l5.727 8.18 16.22-11.359 14.369 5.23 3.419-9.394-19.008-7.17z"/><path d="M92.12 49.086L71.393 34.572l5.727-8.18 16.22 11.359 14.369-5.23 3.419 9.394-19.008 7.17z"/></g><path d="M25.5 46C15.835 46 8 38.165 8 28.5S15.835 11 25.5 11 43 18.835 43 28.5 35.165 46 25.5 46zm0-11a6.5 6.5 0 1 0 0-13 6.5 6.5 0 0 0 0 13zM72 16h8v25h-8a6 6 0 0 1-6-6V22a6 6 0 0 1 6-6zM43.043 77h11.914a7 7 0 0 1 6.063 3.502L74 103H24l12.98-22.498A7 7 0 0 1 43.043 77zM49.5 96a5.5 5.5 0 1 0 0-11 5.5 5.5 0 0 0 0 11z" fill="#51C7E1"/><path d="M17 114h86v-5a6 6 0 0 0-6-6H23a6 6 0 0 0-6 6v5z" stroke="#22303F" stroke-width="2"/></g></svg>