<?xml version="1.0" encoding="UTF-8"?><!DOCTYPE svg PUBLIC "-//W3C//DTD SVG 1.1//EN" "http://www.w3.org/Graphics/SVG/1.1/DTD/svg11.dtd"><svg xmlns="http://www.w3.org/2000/svg" xmlns:xlink="http://www.w3.org/1999/xlink"><defs><style>.cls-1{fill:#010101}</style><style>.cls-1{fill:#010101}</style><path d="M14.423 7.03C9.193 3.37 6.388 2.19.66 2.19V0c6.264 0 9.455 1.34 15.02 5.236 5.23 3.662 8.035 4.84 13.763 4.84s8.533-1.178 13.762-4.84C48.716 1.377 51.9.026 58.047 0c6.441 0 9.632 1.34 15.196 5.236 5.23 3.662 8.035 4.84 13.764 4.84 2.747 0 4.823-.271 6.815-.957a16.405 16.405 0 0 0 1.676-.682c1.601-.748 3.256-1.79 5.271-3.2C106.333 1.34 109.524 0 115.79 0v2.19c-5.729 0-8.534 1.179-13.764 4.84-2.286 1.601-4.171 2.77-6.034 3.593-3.543 3.715-6.287 8.072-10.248 15.66 4.265 8.17 7.181 12.697 11.114 16.537 1.795 1.753 3.709 3.207 5.776 4.357 4.577-1.282 7.638-1.73 13.155-1.73v2.191c-4.216 0-6.9.265-10.038.995 3.024 1.159 6.3 1.748 10.038 1.748v2.19c-5.098 0-9.473-1.033-13.406-3.045l-.674.198c-5.489 1.625-8.586 2.175-14.701 2.175-6.116 0-9.213-.55-14.703-2.175a90.26 90.26 0 0 0-2.467-.698c-3.326 2.273-7.065 3.47-11.406 3.536l-.384.003c-4.595-.022-8.378-1.193-11.74-3.457a94.96 94.96 0 0 0-2.162.616c-5.49 1.625-8.587 2.175-14.702 2.175-6.116 0-9.213-.55-14.703-2.175-.268-.08-.53-.157-.787-.23C10.005 51.526 5.786 52.57.66 52.57v-2.19c3.766 0 6.886-.598 9.928-1.774-3.092-.71-5.762-.969-9.928-.969v-2.19c5.47 0 8.525.44 13.038 1.696 2.044-1.145 3.938-2.588 5.716-4.324 3.895-3.803 6.792-8.28 10.99-16.3-4.146-7.962-6.953-12.401-10.69-16.228-1.62-.805-3.304-1.87-5.29-3.262zm17.21 17.118l.863-1.67c3.051-5.892 5.199-9.628 7.484-12.616-3.254 1.743-6.138 2.405-10.537 2.405-2.116 0-3.882-.153-5.507-.506 2.521 3.145 4.809 6.921 7.698 12.387zm26.2 26.226h.275c3.238-.008 6.088-.697 8.672-2.057-2.556-.492-5.016-.679-8.556-.679-3.682 0-6.195.202-8.863.74 2.53 1.308 5.317 1.976 8.473 1.996zm.391-4.926c4.682 0 7.594.322 11.166 1.202a23.584 23.584 0 0 0 2.881-2.6c3.167-3.344 5.56-7.246 9.559-14.97l1.445-2.798-1.445-2.796c-4-7.725-6.392-11.627-9.559-14.97-3.957-4.179-8.446-6.304-14.135-6.325-5.69.021-10.179 2.146-14.136 6.325-3.167 3.343-5.56 7.245-9.558 14.97-.116.223-1.104 2.137-1.57 3.035.503.97 1.225 2.37 1.322 2.558 4 7.725 6.392 11.627 9.559 14.97a23.465 23.465 0 0 0 2.987 2.681c3.72-.94 6.664-1.282 11.484-1.282zm-16.062.107c-3.353-3.54-5.821-7.565-9.913-15.469l-.618-1.197c-3.927 7.381-6.812 11.715-10.687 15.499a30.363 30.363 0 0 1-4.397 3.58c4.583 1.302 7.471 1.74 12.896 1.74 5.877 0 8.776-.514 14.08-2.085l.612-.18a27.072 27.072 0 0 1-1.973-1.888zm44.845-33.288c-4.537 0-7.462-.704-10.844-2.571 2.334 3.015 4.504 6.78 7.612 12.782l.74 1.434c2.8-5.28 5.038-8.97 7.49-12.048-1.485.28-3.1.403-4.998.403zm-14.08 35.356c5.303 1.57 8.202 2.086 14.08 2.086 5.375 0 8.26-.431 12.77-1.706a30.33 30.33 0 0 1-4.45-3.615c-3.916-3.824-6.821-8.21-10.812-15.735l-.74 1.433c-4.092 7.904-6.56 11.929-9.913 15.47-.608.641-1.23 1.24-1.866 1.796.302.087.612.177.93.271z" id="icon-signal-a"/></defs><symbol id="icon-adc-dac" viewBox="0 0 120 120"><title>ADC DAC</title><g fill="none" fill-rule="evenodd"><path d="M.05 32.846c5.233 0 5.233 12.308 10.467 12.308 5.234 0 5.234-12.308 10.468-12.308s5.234 12.308 10.469 12.308c2.433 0 3.735-2.659 4.958-5.505" stroke="#22303F" stroke-width="2"/><path fill="#51C7E1" d="M47.596 28.009H82.12v22.756H47.596L40 39.394z"/><path d="M45.749 24l-9.81 15.009L45.75 54h39.856V24H45.749z" stroke="#22303F" stroke-width="2"/><path d="M57.35 44.538h-2.074l-.755-2.436h-3.29l-.756 2.436h-2.074L51.913 34.2h1.926l3.512 10.338zm-3.378-4.209l-1.096-3.589-1.097 3.59h2.193zm8.06 4.21h-3.244V34.2h3.245c2.445 0 4.83 1.566 4.83 5.17 0 3.603-2.385 5.168-4.83 5.168zm-1.318-8.567v6.794h.711c.904 0 1.645-.192 2.341-.664.712-.473 1.141-1.418 1.141-2.733 0-1.314-.43-2.26-1.14-2.732-.697-.473-1.438-.665-2.342-.665h-.71zm17.1 1.24c-.49-1.993-2.046-3.13-4.298-3.13-1.378 0-2.534.472-3.482 1.403-.948.93-1.422 2.23-1.422 3.884s.474 2.954 1.422 3.885c.948.93 2.104 1.403 3.482 1.403 2.252 0 3.808-1.138 4.297-3.131l-1.733-.444c-.46 1.197-1.304 1.802-2.564 1.802-.844 0-1.556-.295-2.119-.9-.548-.606-.83-1.478-.83-2.615 0-1.137.282-2.008.83-2.614.563-.605 1.275-.9 2.12-.9 1.259 0 2.103.605 2.563 1.801l1.733-.443z" fill="#FFF"/><path stroke="#22303F" stroke-width="2" d="M118.911 45.61h-8.714V32.847h-8.715v12.765h-8.715v-6.382h-6.162"/><g><path d="M119.874 75c-5.234 0-5.234 12.308-10.467 12.308-5.234 0-5.234-12.308-10.468-12.308-5.235 0-5.235 12.308-10.47 12.308-2.413 0-3.714-2.618-4.929-5.438" stroke="#22303F" stroke-width="2"/><path fill="#51C7E1" d="M72.404 91.991H37.88V69.235h34.524L80 80.606z"/><path d="M74.251 96l9.81-15.009L74.25 66H34.396v30h39.856z" stroke="#22303F" stroke-width="2"/><path d="M48.233 86.452H45V76.118h3.233c2.436 0 4.813 1.565 4.813 5.167s-2.377 5.167-4.813 5.167zm-1.314-8.562v6.79h.709c.9 0 1.638-.192 2.332-.664.709-.472 1.137-1.417 1.137-2.731 0-1.314-.428-2.259-1.137-2.731-.694-.472-1.432-.664-2.332-.664h-.709zm15.737 8.562h-2.067l-.753-2.436H56.56l-.753 2.436H53.74l3.5-10.334h1.918l3.499 10.334zm-3.366-4.207l-1.092-3.588-1.093 3.588h2.185zM72.4 79.13c-.488-1.993-2.038-3.13-4.282-3.13-1.373 0-2.524.472-3.469 1.402-.945.93-1.417 2.23-1.417 3.883s.472 2.953 1.417 3.883c.945.93 2.096 1.402 3.47 1.402 2.243 0 3.793-1.137 4.28-3.13l-1.727-.443c-.458 1.196-1.299 1.801-2.554 1.801-.841 0-1.55-.295-2.11-.9-.547-.605-.828-1.476-.828-2.613s.28-2.008.827-2.613c.561-.605 1.27-.9 2.111-.9 1.255 0 2.096.605 2.554 1.8l1.727-.442z" fill="#FFF"/><path stroke="#22303F" stroke-width="2" d="M2 87.764h8.714V75h8.715v12.764h8.715v-6.382h6.162"/></g></g></symbol><symbol id="icon-antena" viewBox="0 0 120 120"><title>digital communications</title><g transform="translate(14 6)" fill="none" fill-rule="evenodd"><circle stroke="#22303F" stroke-width="2" cx="45.934" cy="45.934" r="8.106"/><path fill="#51C7E1" d="M62.147 105.028l-16.213-40.53-16.212 40.53z"/><path stroke="#22303F" stroke-width="2" d="M67.55 108.081L46.25 54.826l-.608-.053-21.323 53.308z"/><path d="M63.894 64.275a25.592 25.592 0 0 0 7.71-18.34c0-14.177-11.493-25.67-25.67-25.67-14.176 0-25.669 11.493-25.669 25.67 0 7.2 2.965 13.708 7.74 18.37" stroke="#22303F" stroke-width="2"/><path d="M71.903 83.83C83.961 75.55 91.87 61.665 91.87 45.933 91.869 20.566 71.303 0 45.934 0 20.566 0 0 20.566 0 45.934c0 15.708 7.884 29.574 19.91 37.857" stroke="#22303F" stroke-width="2"/></g></symbol><symbol id="icon-beams" viewBox="0 0 120 120"><title>SFP</title><g transform="translate(3 1)" fill="none" fill-rule="evenodd"><g stroke="#22303F" stroke-width="2"><path d="M57.65 78.941L63.176.192M57.687 78.559l16.47-77.216M57.17 79.082L84.188 4.907M57.311 78.724L94.426 9.04"/><g><path d="M57.303 78.604l46.416-63.854M57.537 78.3l54.885-56.756"/></g><g><path d="M57.629 78.941L52.103.192M57.592 78.559L41.122 1.343M57.572 78.938L30.554 4.763M57.431 78.58L20.316 8.895"/><g><path d="M57.52 78.94L11.103 15.085M57.286 78.635L2.4 21.88"/></g></g></g><rect stroke="#22303F" stroke-width="2" fill="#FFF" x="42.978" y="60.61" width="26.448" height="56.202" rx="13.224"/><rect fill="#51C7E1" x="46.284" y="63.916" width="19.836" height="49.59" rx="9.918"/></g></symbol><symbol id="icon-camera" viewBox="0 0 120 120"><title>Image capture</title><g transform="translate(2 30)" fill="none" fill-rule="evenodd"><rect fill="#51C7E1" x="3.605" y="3.605" width="79.319" height="52.879" rx="2"/><rect stroke="#22303F" stroke-width="2" width="86.785" height="60.09" rx="5"/><path stroke="#22303F" stroke-width="2" d="M86.785 17.06l28.588-8.912v43.794l-28.588-8.911z"/><path d="M25.238 20.44v-.01h37.256v.01c5.54.222 9.965 4.774 9.965 10.359 0 5.726-4.653 10.368-10.39 10.368-5.739 0-10.392-4.642-10.392-10.368 0-3.201 1.454-6.063 3.738-7.965h-23.95a10.337 10.337 0 0 1 3.738 7.965c0 5.726-4.653 10.368-10.39 10.368-5.739 0-10.391-4.642-10.391-10.368 0-5.727 4.652-10.368 10.39-10.368.143 0 .285.002.426.008zm-.426 18.323c4.412 0 7.988-3.566 7.988-7.964 0-4.398-3.576-7.965-7.988-7.965-4.411 0-7.987 3.567-7.987 7.965s3.576 7.964 7.987 7.964zm37.256 0c4.412 0 7.987-3.566 7.987-7.964 0-4.398-3.575-7.965-7.987-7.965s-7.987 3.567-7.987 7.965 3.575 7.964 7.987 7.964z" fill="#22303F" fill-rule="nonzero"/></g></symbol><symbol id="icon-carousel-left" viewBox="0 0 16 16"><title>Icon_</title><path class="cls-1" d="M6 8l5.1-5.15a.5.5 0 0 0-.71-.71L4.9 7.65a.5.5 0 0 0 0 .71l5.5 5.5a.5.5 0 0 0 .71-.71z"/></symbol><symbol id="icon-carousel-right" viewBox="0 0 16 16"><title>Icon_</title><path class="cls-1" d="M4.9 13.15a.5.5 0 1 0 .71.71l5.5-5.5a.5.5 0 0 0 0-.71L5.6 2.15a.5.5 0 1 0-.71.71L10 8z"/></symbol><symbol id="icon-chip" viewBox="0 0 172 171"><title>Group 8</title><g fill="none" fill-rule="evenodd"><path stroke="#22303F" stroke-width="2" d="M18.782 18.78h126.529V145.3H18.782z"/><path fill="#FFBD61" d="M25.701 25.699h112.69v112.682H25.701z"/><path d="M88.966 0h1.977v18.78h-1.977V0zM57.333 0h1.977v18.78h-1.977V0zm63.265 0h1.977v18.78h-1.977V0zm-79.08 0h1.976v18.78h-1.977V0zm63.264 0h1.977v18.78h-1.977V0zM73.149 0h1.977v18.78H73.15V0zm63.265 0h1.977v18.78h-1.977V0zM25.7 0h1.977v18.78h-1.977V0zM88.966 145.3h1.977v18.78h-1.977V145.3zm-31.633 0h1.977v18.78h-1.977V145.3zm63.265 0h1.977v18.78h-1.977V145.3zm-79.08 0h1.976v18.78h-1.977V145.3zm63.264 0h1.977v18.78h-1.977V145.3zm-31.633 0h1.977v18.78H73.15V145.3zm63.265 0h1.977v18.78h-1.977V145.3zm-110.713 0h1.977v18.78h-1.977V145.3zM.495 75.615v-1.977h18.78v1.977H.495zm0 31.632v-1.977h18.78v1.977H.495zm0-63.264v-1.977h18.78v1.977H.495zm0 79.08v-1.977h18.78v1.977H.495zm0-63.264v-1.977h18.78v1.977H.495zm0 31.632v-1.977h18.78v1.977H.495zm0-63.264V26.19h18.78v1.977H.495zm0 110.713v-1.978h18.78v1.978H.495zM145.805 75.615v-1.977h18.78v1.977h-18.78zm0 31.632v-1.977h18.78v1.977h-18.78zm0-63.264v-1.977h18.78v1.977h-18.78zm0 79.08v-1.977h18.78v1.977h-18.78zm0-63.264v-1.977h18.78v1.977h-18.78zm0 31.632v-1.977h18.78v1.977h-18.78zm0-63.264V26.19h18.78v1.977h-18.78zm0 110.713v-1.978h18.78v1.978h-18.78z" fill="#22303F"/><ellipse stroke="#22303F" stroke-width="2" fill="#F5F5F5" cx="126.529" cy="125.532" rx="43.494" ry="43.491"/><path d="M94.764 108.958a.988.988 0 1 1 .989-1.712.988.988 0 0 1-.989 1.712zm0 34.233a.988.988 0 1 1 .989-1.712.988.988 0 0 1-.989 1.712zm62.276-34.233a.988.988 0 1 1 .988-1.712.988.988 0 0 1-.988 1.712zm0 35.222a.988.988 0 1 1 .988-1.712.988.988 0 0 1-.988 1.712zm-48.799-49.422a.988.988 0 1 1 1.712-.989.988.988 0 0 1-1.712.989zm53.874 31.762a.988.988 0 1 1 0-1.977.988.988 0 0 1 0 1.977zm-71.172 0a.988.988 0 1 1 0-1.977.988.988 0 0 1 0 1.977zm35.586-35.584a.988.988 0 1 1 0-1.977.988.988 0 0 1 0 1.977zm19.143 4.58a.988.988 0 1 1 0-1.976.988.988 0 0 1 0 1.977z" fill="#22303F"/><g transform="rotate(62 -12.061 178.462)"><ellipse stroke="#22303F" stroke-width="2" fill="#F5F5F5" cx="6.268" cy="31.245" rx="5.931" ry="5.931"/><ellipse fill="#FFBD61" cx="6.268" cy="31.245" rx="2.966" ry="2.965"/><g stroke="#22303F" stroke-width="2"><path d="M6.268 25.376V.604M6.268 49.412V37.176"/></g></g></g></symbol><symbol id="icon-circuit" viewBox="0 0 120 120"><title>SDR</title><g fill="none" fill-rule="evenodd"><g transform="translate(0 20)"><path fill="#51C7E1" d="M19 32h17v17H19zM60 34h17v13H60z"/><circle fill="#51C7E1" cx="68.5" cy="10.5" r="3.5"/><circle fill="#51C7E1" cx="69" cy="71" r="4"/><path fill="#51C7E1" d="M103 10.5L95 16V5z"/><g stroke="#22303F" stroke-width="2"><path d="M33.794 37.168a3.391 3.391 0 0 1-3.166 2.14c-1.172 0-2.147-.503-2.756-1.391-.178-.26-.645-1.085-.98-1.51-.624-.792-1.526-1.324-2.624-1.324-1.558 0-2.872 1.034-3.268 2.443M33.794 44.168a3.391 3.391 0 0 1-3.166 2.14c-1.172 0-2.147-.503-2.756-1.391-.178-.26-.645-1.085-.98-1.51-.624-.792-1.526-1.324-2.624-1.324-1.558 0-2.872 1.034-3.268 2.443"/></g><path stroke="#22303F" stroke-width="2" d="M5.678 22.324v18.21h10.983M38.79 40.534h9.907M10.535 23.176L5.678 30.17"/><path fill="#22303F" d="M13.94 41.374l1.21-.84-1.21-.84zM47.53 40.534a1.166 1.166 0 1 1 2.333 0 1.166 1.166 0 0 1-2.332 0"/><path d="M47.53 40.534a1.166 1.166 0 1 1 2.333 0 1.166 1.166 0 0 1-2.332 0z" stroke="#22303F" stroke-width="2"/><path stroke="#22303F" stroke-width="2" d="M61.313 10.63H48.696v59.808h12.617"/><path fill="#22303F" d="M59.864 11.47l1.21-.84-1.21-.84zM59.864 71.279l1.21-.84-1.21-.84z"/><path d="M62 10.729a6.646 6.646 0 1 1 13.292 0 6.646 6.646 0 0 1-13.292 0zM68.907 31.081V17.45" stroke="#22303F" stroke-width="2"/><g stroke="#22303F" stroke-width="2"><path d="M71.533 8.14l-5.205 5.205M66.328 8.14l5.205 5.205"/></g><path d="M62 70.729a6.646 6.646 0 1 1 13.292 0 6.646 6.646 0 0 1-13.292 0zM71.907 67.534l-6 5.838M65.907 67.534l6 5.838M57 50.083h23v-19H57z" stroke="#22303F" stroke-width="2"/><path d="M71.552 23.759l-5.29 3.404M68.907 50.006v12.12" fill="#22303F"/><path d="M68.907 50.006V64" stroke="#22303F" stroke-width="2"/><path d="M66.262 57.328l5.29-3.404" fill="#22303F"/><path stroke="#22303F" stroke-width="2" d="M93.138 19.912l14-9.5-14-9.5zM75.553 10.63h17.458"/><path fill="#22303F" d="M112.18 11.47l1.21-.84-1.21-.84z"/><path stroke="#22303F" stroke-width="2" d="M111.18 11.47l1.21-.84-1.21-.84z"/><path d="M107.132 10.63h5.048" fill="#22303F"/><path d="M106.132 10.63h5.048" stroke="#22303F" stroke-width="2"/><path d="M79.407 13.274l3.404-5.29" fill="#22303F"/><path d="M75.553 70.453h16.453" stroke="#22303F" stroke-width="2"/><path fill="#22303F" d="M112.18 71.294l1.21-.84-1.21-.84z"/><path stroke="#22303F" stroke-width="2" d="M111.18 71.294l1.21-.84-1.21-.84z"/><path d="M107.132 70.453h5.048" fill="#22303F"/><path d="M106.132 70.453h5.048" stroke="#22303F" stroke-width="2"/><path d="M79.407 73.099l3.404-5.29M117.416 71.393l.636-.628.53.537c.07-.203.105-.44.105-.719 0-.552-.133-.963-.398-1.244a1.283 1.283 0 0 0-.984-.419c-.398 0-.728.14-.992.42-.259.28-.392.691-.392 1.243 0 .551.133.963.392 1.243.264.28.594.42.992.42.279 0 .53-.07.747-.21l-.636-.643zm1.865.6l.468.461-.636.629-.426-.42c-.384.28-.845.42-1.382.42-.845 0-1.545-.328-1.984-1.104-.217-.384-.321-.852-.321-1.396 0-.545.104-1.012.32-1.397.44-.775 1.14-1.103 1.985-1.103.426 0 .802.09 1.145.265.677.342 1.16 1.145 1.16 2.235 0 .551-.113 1.027-.329 1.41zM116 13.083h1.074v-5H116z" fill="#22303F"/><path d="M.821 23.176l4.857 6.994M16 52.083h23v-23H16z" stroke="#22303F" stroke-width="2"/></g><path fill="#51C7E1" d="M103 90.583l-8 5.5v-11z"/><path stroke="#22303F" stroke-width="2" d="M93 100.083l14-9.5-14-9.5z"/></g></symbol><symbol id="icon-cross" viewBox="0 0 32 32"><path d="M26.96 1.504L16 12.464 5.04 1.504 1.504 5.04 12.464 16 1.504 26.96l3.536 3.536L16 19.536l10.96 10.96 3.536-3.536L19.536 16l10.96-10.96-3.536-3.536z" fill-rule="nonzero"/></symbol><symbol id="icon-ethernet" viewBox="0 0 120 120"><title>ethernet icon</title><g fill="none" fill-rule="evenodd"><path stroke="#22303F" stroke-width="2" d="M41.1 2h37.1v37.1H41.1zM2 80.2h37.1v37.1H2z"/><path fill="#51C7E1" d="M5 83h31.07v31.07H5zM83 83h31.326v31.326H83z"/><path fill="#22303F" d="M1 58.347h117.3v2.607H1zM21.853 60.954V79.2h-2.607V60.954z"/><path fill="#22303F" d="M100.053 60.953V79.2h-2.607V60.953zM60.953 40.1v18.247h-2.607V40.1z"/><path stroke="#22303F" stroke-width="2" d="M80.2 80.2h37.1v37.1H80.2z"/><path fill="#51C7E1" d="M44 5h31.326v31.326H44z"/></g></symbol><symbol id="icon-jtag" viewBox="0 0 120 120"><title>jtag</title><g transform="translate(4.156 8.225)" fill="none" fill-rule="evenodd"><path stroke="#22303F" stroke-width="2" d="M53.524 65.972h14.938V51.035H53.524zM89.622 42.322h14.937V27.385H89.622z"/><path fill="#51C7E1" d="M57.259 62.238h7.468v-7.469H57.26zM93.357 38.587h7.468V31.12h-7.468z"/><path d="M37.343 57.259V97.09M97.09 42.322v17.426M97.09 7.469v19.916M110.783 97.09l1.867-1.244-1.867-1.245zM37.343 58.503h17.426M68.462 58.503h29.874" stroke="#22303F" stroke-width="2"/><circle stroke="#22303F" stroke-width="2" cx="7.469" cy="7.469" r="7.469"/><circle fill="#51C7E1" cx="7.469" cy="7.469" r="3.734"/><path d="M36.098 95.846h33.608M84.643 95.846h26.14M69.706 103.315h14.937V88.378H69.706z" stroke="#22303F" stroke-width="2"/><path fill="#51C7E1" d="M73.44 99.218h7.47v-7.469h-7.47z"/><path d="M58.503 7.469h39.833M14.937 7.469h28.63M43.566 14.937h14.937V0H43.566z" stroke="#22303F" stroke-width="2"/><path fill="#51C7E1" d="M47.3 11.203h7.47V3.734H47.3z"/></g></symbol><symbol id="icon-link" viewBox="0 0 22 22"><title>link</title><g fill="#000" fill-rule="evenodd"><path d="M20.5 1.49A5.092 5.092 0 0 0 16.889 0a5.092 5.092 0 0 0-3.611 1.49L10 4.768l.707.707 3.278-3.278A4.077 4.077 0 0 1 16.889 1c1.101 0 2.132.425 2.904 1.197a4.112 4.112 0 0 1 0 5.808l-3.778 3.778a4.077 4.077 0 0 1-2.904 1.197 4.077 4.077 0 0 1-2.904-1.197l-.707.707a5.092 5.092 0 0 0 3.611 1.49 5.092 5.092 0 0 0 3.611-1.49L20.5 8.712c1.986-1.986 1.986-5.236 0-7.222"/><path d="M1.99 19.49a5.092 5.092 0 0 0 3.61 1.49 5.092 5.092 0 0 0 3.612-1.49l3.278-3.278-.707-.707-3.278 3.278A4.077 4.077 0 0 1 5.6 19.98a4.077 4.077 0 0 1-2.903-1.197 4.112 4.112 0 0 1 0-5.808l3.778-3.778A4.077 4.077 0 0 1 9.379 8c1.1 0 2.132.425 2.904 1.197l.707-.707A5.092 5.092 0 0 0 9.379 7a5.092 5.092 0 0 0-3.611 1.49L1.99 12.268c-1.986 1.986-1.986 5.236 0 7.222"/></g></symbol><symbol id="icon-memory" viewBox="0 0 120 120"><title>ddr3</title><g fill="none" fill-rule="evenodd"><path fill="#51C7E1" d="M1 30.224h117.372v59.183H1z"/><path d="M19.953 24.49V7.14c0-1.737-1.392-3.14-3.108-3.14-1.712 0-3.108 1.406-3.108 3.14v17.35h6.216zm51.644 0V7.14c0-1.737-1.392-3.14-3.108-3.14-1.712 0-3.108 1.406-3.108 3.14v17.35h6.216zm-34.038 0V7.14c0-1.737-1.392-3.14-3.108-3.14-1.712 0-3.108 1.406-3.108 3.14v17.35h6.216zm51.644 0V7.14c0-1.737-1.393-3.14-3.108-3.14-1.712 0-3.108 1.406-3.108 3.14v17.35h6.216zm-35.212 0V7.14C53.991 5.404 52.6 4 50.883 4c-1.712 0-3.108 1.406-3.108 3.14v17.35h6.216zm51.644 0V7.14c0-1.737-1.393-3.14-3.108-3.14-1.712 0-3.108 1.406-3.108 3.14v17.35h6.216zM99.419 95.143v17.349c0 1.737 1.393 3.14 3.108 3.14 1.712 0 3.108-1.406 3.108-3.14v-17.35h-6.216zm-51.644 0v17.349c0 1.737 1.393 3.14 3.108 3.14 1.712 0 3.108-1.406 3.108-3.14v-17.35h-6.216zm34.038 0v17.349c0 1.737 1.393 3.14 3.108 3.14 1.712 0 3.108-1.406 3.108-3.14v-17.35h-6.216zm-51.644 0v17.349c0 1.737 1.393 3.14 3.108 3.14 1.712 0 3.108-1.406 3.108-3.14v-17.35H30.17zm35.212 0v17.349c0 1.737 1.393 3.14 3.108 3.14 1.712 0 3.108-1.406 3.108-3.14v-17.35h-6.216zm-51.644 0v17.349c0 1.737 1.393 3.14 3.108 3.14 1.712 0 3.108-1.406 3.108-3.14v-17.35h-6.216z" stroke="#22303F" stroke-width="2"/><path d="M29.984 70.706H23.3V49.163h6.683c5.035 0 9.948 3.262 9.948 10.771 0 7.51-4.913 10.772-9.948 10.772zm-2.716-17.85v14.157h1.465c1.861 0 3.387-.4 4.821-1.385 1.465-.985 2.35-2.954 2.35-5.694 0-2.739-.885-4.708-2.35-5.693-1.434-.985-2.96-1.385-4.821-1.385h-1.465zM50.1 70.706h-6.683V49.163h6.683c5.036 0 9.949 3.262 9.949 10.771 0 7.51-4.913 10.772-9.949 10.772zm-2.716-17.85v14.157h1.465c1.862 0 3.387-.4 4.822-1.385 1.465-.985 2.35-2.954 2.35-5.694 0-2.739-.885-4.708-2.35-5.693-1.435-.985-2.96-1.385-4.822-1.385h-1.465zm30.432 2.431c0 2.863-1.434 5.017-3.997 5.786l5.92 9.633h-4.425l-5.737-9.294h-2.075v9.294h-3.968V49.163h7.782c4.15 0 6.5 2.431 6.5 6.124zM67.503 57.72h3.845c1.678 0 2.502-.8 2.502-2.432 0-1.63-.824-2.43-2.502-2.43h-3.845v4.862zm14.136 7.016c.183 1.816.915 3.324 2.227 4.494 1.313 1.138 2.96 1.723 4.914 1.723 2.105 0 3.814-.646 5.187-1.97 1.374-1.323 2.045-3.077 2.045-5.262 0-3.816-2.045-6.401-5.31-6.401-.213 0-.488.03-.854.061l5.035-6.863v-1.354H82.646v3.57h6.805l-4.028 5.57 1.526 2.155a3.971 3.971 0 0 1 1.861-.462c1.984 0 3.357 1.354 3.357 3.785 0 2.185-1.404 3.601-3.387 3.601-1.8 0-2.93-1.046-3.449-3.139l-3.692.492z" fill="#FFF"/></g></symbol><symbol id="icon-monitor" viewBox="0 0 120 120"><title>Video input</title><g fill="none" fill-rule="evenodd"><path stroke="#22303F" stroke-width="2" d="M2 13h115.383v69.665H2z"/><path fill="#51C7E1" d="M5.266 16.266h108.852V79.4H5.266z"/><path d="M38.574 55.452v-6.836h6.096v6.836h2.83V40.213h-2.83v5.79h-6.096v-5.79h-2.83v15.24h2.83zm16.59 0h-4.768V40.213h4.767c3.592 0 7.097 2.308 7.097 7.62s-3.505 7.62-7.097 7.62zm-1.938-12.627V52.84h1.045c1.328 0 2.416-.283 3.44-.98 1.044-.697 1.676-2.09 1.676-4.027 0-1.938-.632-3.331-1.677-4.028-1.023-.697-2.111-.98-3.44-.98h-1.044zm14.651 12.627v-9.405l2.917 8.012h2.047l2.917-8.012v9.405h2.83V40.213H75.41l-3.592 9.514-3.592-9.514h-3.179v15.24h2.83zm13.607-15.239v15.24h2.83v-15.24h-2.83z" fill="#FFF"/><path stroke="#22303F" stroke-width="2" d="M48.806 82.665h21.77v17.416h-21.77zM34.656 100.082h50.072v6.531H34.656z"/></g></symbol><symbol id="icon-port" viewBox="0 0 120 120"><title>standard</title><g stroke-width="2" stroke="#22303F" fill="none" fill-rule="evenodd"><path d="M1.723 26.747h8.896V19h18.447v7.739h18.581V19h18.061v7.517h17.83V19h18.325v7.84h16.732M1.723 41.275h27.343v-8.048h36.642v8.048h17.83v-8.048h35.057M1.723 56.132h63.985v-8.004h17.83v8.004h35.057M1.723 70.685h45.924V63h18.338v7.685h52.61M1.723 85.685h8.896V78h55.366v7.685h17.553V78h35.057v7.685M1.723 91.995h8.896v8.06h37.028v-8.06h63.107v8.06h7.84"/></g></symbol><symbol id="icon-robot" viewBox="0 0 120 120"><title>robot</title><g fill="none" fill-rule="evenodd"><path stroke="#22303F" stroke-width="2" d="M34 20h37v17H34z"/><path stroke="#22303F" stroke-width="2" d="M37.423 34.253L57.21 78.695l-15.53 6.914-19.787-44.442z"/><g stroke="#22303F" stroke-width="2"><path d="M92.12 6.807L71.393 21.321l5.727 8.18 16.22-11.359 14.369 5.23 3.419-9.394-19.008-7.17z"/><path d="M92.12 49.086L71.393 34.572l5.727-8.18 16.22 11.359 14.369-5.23 3.419 9.394-19.008 7.17z"/></g><path d="M25.5 46C15.835 46 8 38.165 8 28.5S15.835 11 25.5 11 43 18.835 43 28.5 35.165 46 25.5 46zm0-11a6.5 6.5 0 1 0 0-13 6.5 6.5 0 0 0 0 13zM72 16h8v25h-8a6 6 0 0 1-6-6V22a6 6 0 0 1 6-6zM43.043 77h11.914a7 7 0 0 1 6.063 3.502L74 103H24l12.98-22.498A7 7 0 0 1 43.043 77zM49.5 96a5.5 5.5 0 1 0 0-11 5.5 5.5 0 0 0 0 11z" fill="#51C7E1"/><path d="M17 114h86v-5a6 6 0 0 0-6-6H23a6 6 0 0 0-6 6v5z" stroke="#22303F" stroke-width="2"/></g></symbol><symbol id="icon-sd-card" viewBox="0 0 120 120"><title>sd card</title><g fill="none" fill-rule="evenodd"><path d="M28.473 3.408L10.408 21.325v95.252h97.518V3.407H28.473zM27.48 1h82.853v117.985H8V20.322L27.481 1z" fill="#22303F" fill-rule="nonzero"/><path d="M12.816 51.565V23.319L30.463 5.816h75.055V34.71h-4.816v30.098h4.816v49.356H12.816V59.992h4.815v-8.427h-4.815zm72.235-39.73v18.06h9.632v-18.06H85.05zm-15.65 0v18.06h9.63v-18.06h-9.63zm-15.652 0v18.06h9.632v-18.06h-9.632zm-15.65 0v18.06h9.63v-18.06H38.1zm-15.652 9.632v18.059h9.632v-18.06h-9.632z" fill="#51C7E1" fill-rule="nonzero"/><path d="M39.98 80.786v-.043l3.394-.471v.3c0 .685.172 1.328.516 1.928.344.6.845 1.086 1.504 1.457.773.457 1.719.686 2.836.686 1.031 0 1.905-.215 2.621-.643a4.326 4.326 0 0 0 1.59-1.543c.43-.8.645-1.664.645-2.592 0-.929-.258-1.85-.773-2.764-.717-1.228-2.25-2.5-4.599-3.814-3.18-1.828-5.27-3.613-6.274-5.356-.83-1.428-1.246-2.928-1.246-4.5 0-1.513.358-2.899 1.074-4.156a7.08 7.08 0 0 1 2.665-2.614c1.26-.742 2.779-1.114 4.555-1.114 1.89 0 3.51.386 4.856 1.157 1.06.6 1.89 1.421 2.492 2.464a6.541 6.541 0 0 1 .903 3.32v.044l-3.395.471v-.3c0-.685-.172-1.328-.516-1.928-.344-.6-.845-1.086-1.504-1.457-.773-.457-1.719-.686-2.836-.686-1.031 0-1.905.215-2.621.643a4.326 4.326 0 0 0-1.59 1.543c-.43.8-.645 1.664-.645 2.592 0 .929.258 1.85.774 2.764.716 1.228 2.248 2.5 4.598 3.814 3.18 1.828 5.271 3.613 6.274 5.356.83 1.428 1.246 2.928 1.246 4.5 0 1.513-.358 2.899-1.074 4.156a7.08 7.08 0 0 1-2.665 2.614c-1.26.742-2.779 1.114-4.555 1.114-1.89 0-3.51-.386-4.856-1.157a6.545 6.545 0 0 1-2.492-2.464 6.541 6.541 0 0 1-.903-3.321zm21.7-24.896h7.091c1.834 0 3.424.386 4.77 1.157 1.318.771 2.393 1.871 3.223 3.3 1.06 1.856 1.59 4.127 1.59 6.813v8.955c0 2.686-.53 4.957-1.59 6.814-.83 1.428-1.905 2.528-3.223 3.299-1.346.771-2.936 1.157-4.77 1.157h-7.09V55.89zm7.091 28.41c1.06 0 2.006-.243 2.837-.729.83-.485 1.532-1.2 2.105-2.142.802-1.4 1.204-3.171 1.204-5.314V67.16c0-2.143-.402-3.914-1.204-5.314-.573-.943-1.275-1.657-2.105-2.142-.831-.486-1.777-.729-2.837-.729H65.12V84.3h3.652z" fill="#FFF"/></g></symbol><symbol id="icon-search" viewBox="0 0 167 106"><title>Group 3</title><g transform="translate(.988 .982)" fill="none" fill-rule="evenodd"><path d="M141.84 76.755l21.923 21.924a2.965 2.965 0 1 1-4.193 4.193l-22.124-22.124" stroke="#22303F" stroke-width="2"/><ellipse stroke="#22303F" stroke-width="2" cx="120.565" cy="59.881" rx="26.682" ry="26.505"/><ellipse stroke="#22303F" stroke-width="2" cx="120.565" cy="59.881" rx="21.741" ry="21.596"/><ellipse stroke="#22303F" stroke-width="2" cx="7.906" cy="53.009" rx="7.906" ry="7.853"/><ellipse stroke="#22303F" stroke-width="2" cx="49.412" cy="25.523" rx="7.906" ry="7.853"/><ellipse stroke="#22303F" stroke-width="2" cx="73.129" cy="66.752" rx="7.906" ry="7.853"/><ellipse stroke="#22303F" stroke-width="2" cx="97.835" cy="17.67" rx="7.906" ry="7.853"/><ellipse stroke="#22303F" stroke-width="2" cx="155.153" cy="7.853" rx="7.906" ry="7.853"/><ellipse stroke="#22303F" stroke-width="2" cx="122.541" cy="58.899" rx="7.906" ry="7.853"/><ellipse fill="#FFBD61" cx="7.906" cy="53.009" rx="4.941" ry="4.908"/><ellipse fill="#FFBD61" cx="49.412" cy="25.523" rx="4.941" ry="4.908"/><ellipse fill="#FFBD61" cx="73.129" cy="66.752" rx="4.941" ry="4.908"/><ellipse fill="#FFBD61" cx="97.835" cy="17.67" rx="4.941" ry="4.908"/><ellipse fill="#FFBD61" cx="155.153" cy="7.853" rx="4.941" ry="4.908"/><ellipse fill="#FFBD61" cx="122.541" cy="58.899" rx="4.941" ry="4.908"/><path d="M14.48 48.215l27.536-19.201M69.404 59.665L53.192 32.294M77.483 59.766L94.08 25.024M118.275 52.376l-5.462-9.479M107.307 33.342l-5.023-8.717M127.109 52.786l4.769-7.515M138.298 35.154L151.24 14.76" stroke="#22303F" stroke-width="2"/></g></symbol><symbol id="icon-sensor" viewBox="0 0 120 120"><title>Sensor</title><g transform="translate(1 22)" fill="none" fill-rule="evenodd"><circle stroke="#22303F" stroke-width="2" cx="74.535" cy="40.537" r="10.461"/><path stroke="#22303F" stroke-width="2" d="M63.847 40.417H52.593l-7.408-23.383-13.057 48.737L20.635 0l-10.21 40.156H0"/><circle fill="#51C7E1" cx="74.535" cy="40.537" r="6.538"/><path d="M99.923 5.64c10.767 7.846 17.764 20.554 17.764 34.897 0 14.19-6.85 26.78-17.423 34.645" stroke="#22303F" stroke-width="2"/><path d="M89.903 19.373c6.536 4.755 10.785 12.463 10.785 21.164 0 8.591-4.144 16.216-10.541 20.983" stroke="#22303F" stroke-width="2"/></g></symbol><symbol id="icon-signal" viewBox="0 0 120 120"><title>transceiver port</title><g fill="none" fill-rule="evenodd"><g fill-rule="nonzero" transform="translate(2 34)"><use fill="#22303F" fill-rule="evenodd" xlink:href="#icon-signal-a"/><path stroke="#51C7E1" stroke-width="2" d="M96.58 11.455c-3.205 3.394-5.805 7.389-9.708 14.827 4.263 8.124 7.053 12.277 10.684 15.823 1.646 1.607 3.375 2.935 5.21 3.997 4.57-1.254 7.707-1.654 13.022-1.654h1v4.19h-1c-2.173 0-3.923.07-5.537.24 1.742.336 3.577.503 5.537.503h1v4.19h-1c-5.04 0-9.47-.983-13.503-2.975l-.293.087c-5.844 1.73-9.019 2.216-14.985 2.216-5.967 0-9.142-.486-14.987-2.217a96.004 96.004 0 0 0-2.004-.572c-3.428 2.24-7.244 3.386-11.576 3.452l-.398.003c-4.548-.022-8.422-1.13-11.907-3.373-.525.145-1.088.307-1.706.49-5.845 1.731-9.02 2.217-14.986 2.217-5.967 0-9.141-.486-14.986-2.217l-.404-.118C9.977 52.595 5.687 53.57.66 53.57h-1v-4.19h1c1.962 0 3.755-.166 5.473-.51-1.595-.164-3.328-.233-5.473-.233h-1v-4.19h1c5.273 0 8.403.395 12.903 1.621 1.813-1.056 3.523-2.373 5.152-3.964 3.6-3.514 6.372-7.628 10.56-15.587-4.1-7.834-6.767-11.903-10.16-15.408-1.543-.78-3.182-1.802-5.265-3.26C8.54 4.133 5.947 3.19.66 3.19h-1V-1h1C6.885-1 10.253.216 16.253 4.417c5.309 3.717 7.903 4.66 13.19 4.66 5.286 0 7.88-.943 13.189-4.66C48.582.251 51.935-.975 58.047-1c6.383 0 9.756 1.207 15.77 5.417 5.308 3.717 7.903 4.66 13.19 4.66 2.7 0 4.65-.27 6.49-.904a15.366 15.366 0 0 0 1.578-.642c1.442-.674 2.988-1.62 5.12-3.114 6-4.2 9.368-5.417 15.593-5.417h1v4.19h-1c-5.286 0-7.88.943-13.19 4.66-2.43 1.701-4.255 2.807-6.018 3.605zm-70.357 1.669a46.14 46.14 0 0 0-1.507-1.989l-.992 1.603c.79.172 1.615.3 2.499.386zm10.9-.924a21.282 21.282 0 0 0 3.33-1.456l-1.267-1.49a44.84 44.84 0 0 0-2.064 2.946zM31.618 22l-.01.02c-.039.073-.68 1.314-.864 1.67l.889.459.884-.467c-.307-.582-.607-1.142-.9-1.682zm0 0c-2.017-3.725-3.709-6.52-5.396-8.875a32.98 32.98 0 0 0 3.22.143c3.047 0 5.42-.312 7.68-1.067-1.561 2.416-3.255 5.455-5.504 9.799zM62.81 48.79c-1.345-.106-2.824-.153-4.587-.153-1.902 0-3.474.055-4.907.18 1.42.361 2.92.546 4.523.556h.265c1.671-.004 3.233-.198 4.706-.583zm-15.845-3.147a54.41 54.41 0 0 0-.47.117l.843.168a19.753 19.753 0 0 1-.373-.285zM33.998 26.522l-.237-.46v.92l.237-.46zm48.151-.24l.238.46v-.92l-.238.46zM69.157 45.565a19.93 19.93 0 0 1-.371.288l.843-.173c-.159-.04-.316-.078-.472-.115zm-22.19.079a22.914 22.914 0 0 1-2.488-2.282c-2.969-3.135-5.262-6.755-9.397-14.742l-.897-1.738-.002-.002-.185-.358.433-.837.001-.002.898-1.738c4.135-7.987 6.428-11.608 9.396-14.742 3.847-4.061 8.102-5.992 13.413-6.012 5.304.02 9.56 1.95 13.406 6.012 2.969 3.134 5.262 6.755 9.397 14.742l.897 1.738a195668648.43 195668648.43 0 0 0 .31.6l-.308.597-.002.002-.897 1.738c-4.135 7.987-6.428 11.607-9.397 14.742a23.038 23.038 0 0 1-2.388 2.203c-3.469-.82-6.41-1.117-10.933-1.117-4.653 0-7.635.314-11.258 1.196zm-4.81 1.335c.436.429.877.836 1.324 1.222l.654-.757-.28-.96-.616.18c-.373.11-.733.215-1.082.315zm-23.316.57c-.64-.16-1.31-.341-2.02-.543l.28 1.794c.59-.393 1.17-.81 1.74-1.252zM31.613 31.03c.294-.539.594-1.096.9-1.672l-.882-.47-.889.46a3372.791 3372.791 0 0 0 .87 1.682zM42.157 46.98c-4.773 1.36-7.546 1.73-12.714 1.73-4.39 0-7.074-.277-10.602-1.16a32.534 32.534 0 0 0 2.802-2.446c3.553-3.47 6.319-7.383 9.97-14.072 4.17 8.023 6.588 11.797 9.823 15.212.239.252.48.497.721.736zm47.615-33.815c.857-.069 1.655-.174 2.419-.318l-.968-1.605c-.488.612-.969 1.25-1.45 1.923zm-5.24 8.601c-.293.54-.593 1.098-.9 1.678l.883.469.889-.46-.741-1.433-.131-.254zm-5.433-9.643a44.13 44.13 0 0 0-2.145-3.038L75.68 10.57a22 22 0 0 0 3.419 1.551zm10.673 1.042c-1.643 2.298-3.292 5.015-5.24 8.601-2.21-4.26-3.886-7.255-5.433-9.643 2.331.812 4.761 1.145 7.908 1.145.995 0 1.91-.034 2.765-.103zm-15.81 33.72c4.978 1.437 7.759 1.825 13.045 1.825 4.338 0 7.01-.272 10.466-1.127a32.502 32.502 0 0 1-2.845-2.479c-3.592-3.508-6.378-7.465-10.096-14.304-4.245 8.182-6.678 11.996-9.944 15.444-.207.219-.416.433-.626.641z"/></g><g stroke="#22303F" stroke-width="2"><path d="M2.66 35.095c14.391 0 14.391 10.076 28.783 10.076 14.39 0 14.39-10.076 28.781-10.076 14.391 0 14.391 10.076 28.783 10.076 14.39 0 14.39-10.076 28.781-10.076M2.66 80.543c14.391 0 14.391 4.261 28.783 4.261 14.39 0 14.39-4.261 28.781-4.261 14.391 0 14.391 4.261 28.783 4.261 14.39 0 14.39-4.261 28.781-4.261M2.42 85.476c34.89 0 29.42-50.38 57.804-50.38M117.852 85.476c-34.89 0-29.42-50.38-57.805-50.38M23.228 43.533c14.007 14.344 16.47 41.943 37.479 41.943M97.646 43.533c-14.007 14.344-16.47 41.943-37.479 41.943"/></g></g></symbol><symbol id="icon-swipe" viewBox="0 0 100 100"><title>Artboard 40</title><path d="M73.55 39.46A5.92 5.92 0 0 0 70 40.63a5.86 5.86 0 0 0-9.75-4.38 5.85 5.85 0 0 0-5.48-3.82 5.92 5.92 0 0 0-3.51 1.17v-9.37a5.86 5.86 0 1 0-11.71 0v26.19a7.38 7.38 0 0 0-2.67-3 7.59 7.59 0 0 0-5.76-1.08l-2.83.61a1.19 1.19 0 0 0-.91 1.38l5.34 25a17.53 17.53 0 0 0 17.4 15.32h11.71A17.56 17.56 0 0 0 79.4 71.08V45.31a5.86 5.86 0 0 0-5.85-5.85zm3.51 31.63a15.2 15.2 0 0 1-15.23 15.22H50.12A15.22 15.22 0 0 1 35 73l-5.07-24 1.71-.35a5.23 5.23 0 0 1 6.26 4.08l.63 3 1.07 6.17a1.17 1.17 0 0 0 2.32-.19V24.23a3.51 3.51 0 0 1 7 0v28.11a1.17 1.17 0 0 0 1.17 1.17 1.16 1.16 0 0 0 1.17-1.17V38.29a3.51 3.51 0 0 1 7 0v14.05a1.17 1.17 0 0 0 1.17 1.17 1.16 1.16 0 0 0 1.17-1.17V40.63a3.51 3.51 0 0 1 7 0v11.71a1.17 1.17 0 0 0 1.17 1.17A1.16 1.16 0 0 0 70 52.34v-7a3.51 3.51 0 1 1 7 0zM38.17 17.2A1.17 1.17 0 0 1 37 18.37H24.58l2.69 2.69a1.17 1.17 0 0 1-.82 2 1.19 1.19 0 0 1-.84-.35L20.93 18a1.17 1.17 0 0 1 0-1.64l4.69-4.69a1.16 1.16 0 0 1 1.66 0 1.13 1.13 0 0 1 0 1.64L24.58 16H37a1.17 1.17 0 0 1 1.17 1.2zM69.45 18l-4.69 4.69a1.14 1.14 0 0 1-.82.35 1.19 1.19 0 0 1-.84-.35 1.17 1.17 0 0 1 0-1.64l2.69-2.69H53.4a1.17 1.17 0 1 1 0-2.34h12.39l-2.69-2.68a1.17 1.17 0 0 1 0-1.64 1.16 1.16 0 0 1 1.66 0l4.69 4.69a1.13 1.13 0 0 1 0 1.61z"/></symbol><symbol id="icon-system" viewBox="0 0 171 170"><title>Group 10</title><g fill="none" fill-rule="evenodd"><path stroke="#22303F" stroke-width="2" d="M40.526 62.267h88.96v19.767h-88.96z"/><path fill="#FFBD61" d="M43.491 65.232h83.029V79.07H43.491z"/><path fill="#FFF" d="M48.434 70.174h29.653v3.953H48.434zM117.624 70.174h3.954v3.953h-3.954zM109.717 70.174h3.954v3.953h-3.954zM101.809 70.174h3.954v3.953h-3.954z"/><path stroke="#22303F" stroke-width="2" d="M40.526 87.965h88.96v19.767h-88.96z"/><path fill="#FFBD61" d="M43.491 90.93h83.029v13.837H43.491z"/><path fill="#FFF" d="M48.434 95.872h29.653v3.953H48.434zM117.624 95.872h3.954v3.953h-3.954zM109.717 95.872h3.954v3.953h-3.954zM101.809 95.872h3.954v3.953h-3.954z"/><g transform="translate(77.098 .988)"><ellipse stroke="#22303F" stroke-width="2" cx="7.908" cy="7.907" rx="7.908" ry="7.907"/><ellipse fill="#FFBD61" cx="7.908" cy="7.907" rx="2.965" ry="2.965"/><path d="M6.92 18.78h1.976v1.976H6.919v-1.977zm0 3.953h1.976v1.976H6.919v-1.976zm0 3.953h1.976v1.977H6.919v-1.977zm0 3.954h1.976v1.976H6.919V30.64zm0 3.953h1.976v1.977H6.919v-1.977zm0 3.954h1.976v1.976H6.919v-1.976z" fill="#22303F"/></g><g transform="rotate(-90 47.443 45.959)"><ellipse stroke="#22303F" stroke-width="2" cx="7.908" cy="7.907" rx="7.908" ry="7.907"/><ellipse fill="#FFBD61" cx="7.908" cy="7.907" rx="2.965" ry="2.965"/><path d="M6.92 18.78h1.976v1.976H6.919v-1.977zm0 3.953h1.976v1.976H6.919v-1.976zm0 7.907h1.976v1.976H6.919V30.64zm0-3.954h1.976v1.977H6.919v-1.977z" fill="#22303F"/></g><g><g transform="rotate(-180 46.457 84.506)"><ellipse stroke="#22303F" stroke-width="2" cx="7.908" cy="7.907" rx="7.908" ry="7.907"/><ellipse fill="#FFBD61" cx="7.908" cy="7.907" rx="2.965" ry="2.965"/><path d="M6.92 18.78h1.976v1.976H6.919v-1.977zm0 3.953h1.976v1.976H6.919v-1.976zm0 3.953h1.976v1.977H6.919v-1.977zm0 3.954h1.976v1.976H6.919V30.64zm0 3.953h1.976v1.977H6.919v-1.977zm0 3.954h1.976v1.976H6.919v-1.976z" fill="#22303F"/></g></g><g transform="rotate(90 45.965 123.551)"><ellipse stroke="#22303F" stroke-width="2" cx="7.908" cy="7.907" rx="7.908" ry="7.907"/><ellipse fill="#FFBD61" cx="7.908" cy="7.907" rx="2.965" ry="2.965"/><path d="M6.92 18.78h1.976v1.976H6.919v-1.977zm0 3.953h1.976v1.976H6.919v-1.976zm0 3.953h1.976v1.977H6.919v-1.977zm0 3.954h1.976v1.976H6.919V30.64z" fill="#22303F"/></g><g><g transform="rotate(-45 46.696 -7.966)"><ellipse stroke="#22303F" stroke-width="2" cx="8.048" cy="8.755" rx="7.908" ry="7.907"/><ellipse fill="#FFBD61" cx="8.048" cy="8.755" rx="2.965" ry="2.965"/><path d="M7.06 19.627h1.976v1.977H7.06v-1.977zm0 3.953h1.976v1.977H7.06V23.58zm0 3.954h1.976v1.977H7.06v-1.977zm0 3.953h1.976v1.977H7.06v-1.977zm0 3.954h1.976v1.977H7.06V35.44z" fill="#22303F"/></g><g transform="rotate(135 46.705 100.368)"><ellipse stroke="#22303F" stroke-width="2" cx="8.755" cy="8.047" rx="7.908" ry="7.907"/><ellipse fill="#FFBD61" cx="8.755" cy="8.047" rx="2.965" ry="2.965"/><path d="M7.767 18.92h1.977v1.976H7.767V18.92zm0 3.953h1.977v1.977H7.767v-1.977zm0 3.954h1.977v1.976H7.767v-1.976zm0 3.953h1.977v1.977H7.767V30.78zm0 3.954h1.977v1.976H7.767v-1.976z" fill="#22303F"/></g></g><g><g transform="rotate(45 46.711 176.972)"><ellipse stroke="#22303F" stroke-width="2" cx="8.755" cy="8.755" rx="7.908" ry="7.907"/><ellipse fill="#FFBD61" cx="8.755" cy="8.755" rx="2.965" ry="2.965"/><path d="M7.767 19.627h1.977v1.977H7.767v-1.977zm0 3.953h1.977v1.977H7.767V23.58zm0 3.954h1.977v1.977H7.767v-1.977zm0 3.953h1.977v1.977H7.767v-1.977zm0 3.954h1.977v1.977H7.767V35.44z" fill="#22303F"/></g><g transform="rotate(-135 46.703 68.638)"><ellipse stroke="#22303F" stroke-width="2" cx="8.048" cy="8.047" rx="7.908" ry="7.907"/><ellipse fill="#FFBD61" cx="8.048" cy="8.047" rx="2.965" ry="2.965"/><path d="M7.06 18.92h1.976v1.976H7.06V18.92zm0 3.953h1.976v1.977H7.06v-1.977zm0 3.954h1.976v1.976H7.06v-1.976zm0 3.953h1.976v1.977H7.06V30.78zm0 3.954h1.976v1.976H7.06v-1.976z" fill="#22303F"/></g></g></g></symbol><symbol id="icon-usb" viewBox="0 0 120 120"><title>usb c</title><g transform="translate(26 1)" fill="none" fill-rule="evenodd"><circle fill="#51C7E1" cx="20.596" cy="48.841" r="5.296"/><circle fill="#51C7E1" cx="34.702" cy="87.662" r="8.469"/><path fill="#51C7E1" d="M32.953 32.953h3.531v47.076h-3.531zM47.076 41.191h3.531v15.3h-3.531zM18.83 48.253h3.531v15.3H18.83z"/><path fill="#51C7E1" d="M18.844 63.549l2.483-2.35 14.49 14.49-2.497 2.496zM48.065 53.917l2.543 2.577L35.45 71.756l-2.497-2.496zM43.545 36.484h10.592v10.592H43.545zM34.719 23.538l5.296 9.415H29.422z"/><rect stroke="#22303F" stroke-width="2" transform="rotate(90 34.13 58.845)" x="-23.715" y="25.715" width="115.69" height="66.26" rx="4"/></g></symbol><symbol id="icon-zynq" viewBox="0 0 120 120"><title>zynq</title><g transform="translate(1 1)" fill="none" fill-rule="evenodd"><rect stroke="#22303F" stroke-width="2" x="1" y="1" width="115.992" height="115.992" rx="4"/><rect fill="#51C7E1" x="4.72" y="4.72" width="108.553" height="108.553" rx="4"/><g fill="#FFF"><path d="M27.728 56.64L20.058 69.8v1.519h12.53v-3.038H24.64l7.593-13.162v-1.518H20.49v3.037h7.239zm10.94 7.137v7.543h3.29v-7.543l5.113-10.175h-3.543l-3.215 6.884-3.214-6.884h-3.544l5.113 10.175zm20.154 1.519l-6.505-11.694h-3.468V71.32h3.29V59.626l6.505 11.694h3.468V53.602h-3.29v11.694zm23.266-2.835c0 2-.405 3.72-1.19 5.113l1.697 1.67-2.304 2.278-1.544-1.519c-1.392 1.013-3.062 1.52-5.011 1.52-3.063 0-5.594-1.19-7.189-4-.785-1.392-1.164-3.088-1.164-5.062 0-1.975.38-3.67 1.164-5.063 1.595-2.81 4.126-3.999 7.189-3.999 1.544 0 2.91.33 4.15.962 2.456 1.24 4.202 4.151 4.202 8.1zm-5.644 5.264l-2.303-2.328 2.303-2.278 1.924 1.949c.253-.734.38-1.595.38-2.607 0-2-.482-3.493-1.444-4.506-.936-1.012-2.126-1.518-3.568-1.518-1.443 0-2.633.506-3.595 1.518-.936 1.013-1.417 2.506-1.417 4.506 0 2 .48 3.493 1.417 4.505.962 1.013 2.152 1.519 3.595 1.519 1.012 0 1.923-.253 2.708-.76zM77.875 47.197h9.237l6.304 7.08H84.18l-6.304-7.08zm24.778 7.08l-6.304 7.079h-9.237l6.304-7.08h9.237z"/></g></g></symbol></svg>