<svg id="Layer_1" xmlns="http://www.w3.org/2000/svg" viewBox="0 0 742.9 152.8"><style>.st0{fill:#fff}.st1{fill:#51c7e1}</style><path class="st0" d="M142.4 23.1c-3.6-6.1-11.4-8.3-17.6-4.7L86.4 40.5 48.1 18.4c-6.2-3.6-14.1-1.5-17.6 4.7-3.6 6.2-1.5 14 4.7 17.6l38.3 22.1V107c0 7.1 5.8 12.9 12.9 12.9 7.2 0 12.9-5.7 12.9-12.8V62.8l38.4-22.1c6.1-3.6 8.3-11.4 4.7-17.6z"/><path class="st1" d="M12.9 25.8c-.8 0-1.7-.1-2.5-.3-.8-.2-1.6-.4-2.4-.7-.8-.3-1.5-.7-2.2-1.2s-1.4-1-2-1.6-1.1-1.2-1.6-2c-.5-.7-.9-1.4-1.2-2.2-.3-.8-.6-1.6-.7-2.4-.2-.8-.3-1.7-.3-2.5s.1-1.7.2-2.5c.2-.9.4-1.7.8-2.5.3-.8.7-1.5 1.2-2.2s1-1.4 1.6-2 1.3-1.1 2-1.6c.6-.4 1.4-.8 2.1-1.1.8-.3 1.6-.6 2.4-.7 1.6-.3 3.4-.3 5 0 .9.1 1.7.4 2.5.7s1.5.7 2.2 1.2 1.4 1 2 1.6 1.1 1.3 1.6 2 .9 1.4 1.2 2.2c.3.8.6 1.6.7 2.4.2.8.2 1.7.2 2.5 0 3.4-1.4 6.7-3.8 9.1-.6.6-1.3 1.1-2 1.6s-1.4.9-2.2 1.2c-.8.3-1.6.6-2.4.7-.8.2-1.6.3-2.4.3zm147.1 0c-3.4 0-6.7-1.4-9.1-3.8-.6-.6-1.1-1.2-1.6-2-.5-.7-.8-1.4-1.2-2.2-.3-.8-.6-1.6-.7-2.4-.2-.8-.3-1.7-.3-2.5s.1-1.7.3-2.5.4-1.6.7-2.4.7-1.5 1.2-2.2 1-1.4 1.6-2c3-3 7.4-4.4 11.6-3.5.8.2 1.6.4 2.4.7.8.3 1.5.7 2.2 1.2s1.4 1 2 1.6 1.1 1.3 1.6 2 .8 1.4 1.2 2.2c.3.8.6 1.6.7 2.4.2.8.3 1.7.3 2.5s-.1 1.7-.3 2.5c-.2.8-.4 1.6-.7 2.4s-.7 1.5-1.2 2.2-1 1.4-1.6 2-1.2 1.1-2 1.6c-.7.5-1.4.9-2.2 1.2-.8.3-1.6.6-2.4.7-.8.2-1.6.3-2.5.3zm-73.5 127c-.8 0-1.7-.1-2.5-.3s-1.6-.4-2.4-.7-1.5-.7-2.2-1.2-1.4-1-2-1.6-1.1-1.3-1.6-2-.8-1.4-1.2-2.2c-.3-.8-.6-1.6-.7-2.4-.2-.8-.3-1.7-.3-2.5s.1-1.7.3-2.5c.2-.8.4-1.6.7-2.4.3-.8.7-1.5 1.2-2.2s1-1.4 1.6-2 1.3-1.1 2-1.6 1.4-.9 2.2-1.2c.8-.3 1.6-.6 2.4-.7 1.6-.3 3.4-.3 5 0 .8.2 1.6.4 2.4.7.8.3 1.5.7 2.2 1.2s1.4 1 2 1.6c2.4 2.4 3.8 5.7 3.8 9.1 0 .8-.1 1.7-.3 2.5-.2.8-.4 1.6-.7 2.4-.3.8-.7 1.5-1.2 2.2s-1 1.4-1.6 2c-2.4 2.4-5.7 3.8-9.1 3.8z"/><path class="st0" d="M633.4 90.8h-5.5c-4.9 0-9.8.1-14.7-.1-2.1-.1-4.3-.3-6.2-1.7-2.1-1.6-3.3-3.5-3.8-6.1-.9-4.7 2.7-9.6 7.4-10.1 1-.1 2-.3 3-.3 9.4 0 18.8-.1 28.3.1 1.8 0 3.6.7 5.3 1.4 2.7 1.3 4 3.7 4.3 6.6.2 1.3.3 2.6.3 3.9v25.1c0 4.2-1.3 7.6-4.4 10.5-3.9 3.7-7.6 7.6-11.5 11.4-1.5 1.4-3 2.9-4.8 3.8-1.4.8-3.3 1.1-5 1.1-9.4.1-18.8.1-28.3 0-3.2 0-6-1.2-8.3-3.5-4.2-4.2-8.4-8.5-12.7-12.6-3.2-3.1-4.6-6.7-4.6-11 .1-18.6 0-37.2 0-55.8 0-3.9 1.1-7.2 4.1-10 4.4-4.2 8.7-8.6 13-13 2.5-2.6 5.4-3.7 9-3.7 9.1.1 18.2.1 27.2 0 3.6 0 6.6 1.1 9.1 3.8 4.5 4.7 9.3 9.3 13.9 13.9 1.5 1.6 2.6 3.4 2.9 5.6.4 4.7-2.6 8.8-7.2 9.8-3.3.7-6-.4-8.3-2.7-3.8-3.8-7.5-7.6-11.4-11.3-.5-.5-1.3-.8-2-.8-7-.1-14-.1-21 0-.7 0-1.5.3-2 .8-2.8 2.7-5.5 5.4-8.2 8.2-.4.4-.7 1.2-.7 1.7v51.3c0 .6.4 1.4.8 1.9 2.8 2.9 5.7 5.7 8.5 8.6.4.4 1.2.7 1.7.7h20.7c.6 0 1.3-.3 1.8-.7 2.9-2.8 5.8-5.7 8.7-8.6.3-.3.7-.9.7-1.3-.1-5.6-.1-11.2-.1-16.9zm-387.2-64H260c3.4 0 6.3 1.2 8.7 3.6 4.1 4.2 8.4 8.4 12.5 12.6.9.9 1.7 2 2.5 3 2.9 3.7 2.1 8.2-.7 11.3-2.2 2.4-5.2 3.2-8.5 2.5-2-.4-3.5-1.5-4.9-2.8-3.8-3.7-7.5-7.5-11.3-11.2-.5-.4-1.2-.8-1.9-.8-6.9-.1-13.9-.1-20.8 0-.6 0-1.4.3-1.9.8-2.8 2.7-5.5 5.4-8.2 8.2-.4.5-.7 1.2-.8 1.9-.1 1.9-.1 3.8 0 5.7 0 .6.3 1.4.8 1.9 2.7 2.8 5.4 5.5 8.2 8.2.5.5 1.3.8 2 .8 7.9.1 15.8.1 23.7 0 3.8 0 6.9 1.2 9.6 4 4.2 4.4 8.6 8.7 13 13 .6.6 1.1 1.3 1.7 2 1.5 1.8 1.8 4.1 1.9 6.3.1 4.3 0 8.5 0 12.8 0 3.4-1 6.3-3.6 8.7-4.5 4.3-8.9 8.7-13.2 13.2-2.7 2.8-5.9 4-9.6 4-8.7 0-17.4-.1-26.1 0-4.1 0-7.5-1.4-10.4-4.3-3.8-3.8-7.6-7.5-11.3-11.4-1.3-1.3-2.5-2.8-3.5-4.4-1.7-2.5-1.7-5.4-.5-8 1.6-3.6 4.5-5.5 8.5-5.3 2.4.1 4.5 1.1 6.3 2.8 3.8 3.8 7.6 7.6 11.5 11.4.5.5 1.4.9 2.1.9 6.9.1 13.8.1 20.7 0 .7 0 1.5-.4 2-.8 2.8-2.7 5.5-5.4 8.1-8.1.5-.5.8-1.3.8-2 .1-2.2.6-4.7-.2-6.6-.8-1.9-2.9-3.2-4.4-4.7-1.4-1.4-2.8-2.9-4.4-4.3-.5-.5-1.3-.8-2-.8-7.8-.1-15.6-.1-23.5 0-4 0-7.3-1.3-10.2-4.2-3.7-3.9-7.6-7.5-11.3-11.4-1.4-1.5-2.8-3.1-3.9-4.8-.7-1.3-1-2.9-1.1-4.4-.1-4.8-.1-9.6 0-14.4 0-2.8 1-5.3 3-7.3L223.8 30c2.1-2 4.6-3 7.5-3 5.1-.3 10-.2 14.9-.2zm161.4 91.5h51.2c3.6 0 6.6 1.3 8.5 4.6 2.1 3.6 1.4 8.8-2.3 11.5-2.2 1.6-4.6 2.2-7.1 2.2h-57.8c-2.7 0-5.4-.5-7.5-2.4-1.9-1.8-3-4.1-3-6.7-.1-5.1-.1-10.2 0-15.3 0-2.8 1.3-5.2 3.2-7.1 18.8-18.8 37.6-37.7 56.5-56.4 1-1 1.4-2 1-3.5h-50.2c-2.7 0-5.3-.6-7.5-2.4-1.8-1.4-3.4-5.7-3-7.9.6-3 2-5.4 4.8-6.8 1.4-.7 3-1.1 4.5-1.1 20.1-.1 40.1-.1 60.2 0 4.1 0 7.2 1.9 8.8 5.7.6 1.4.8 3 .8 4.5.1 4.1 0 8.2.1 12.2.1 3.8-1.3 6.9-3.9 9.5-18.7 18.7-37.4 37.4-56.1 56-1.1.8-1.6 1.8-1.2 3.4zm295.8-49.6l21-21c.3-.3.5-1 .5-1.6v-9.8c0-4 1.7-7 5.2-8.7 3.6-1.8 8.1-.8 10.7 2.7 1.5 2 2 4.1 2 6.5 0 4.4-.1 8.7 0 13.1.1 3.6-1.4 6.4-3.8 8.9-8.5 8.5-17 17.1-25.5 25.5-.7.7-1.1 1.5-1.1 2.5 0 13.1.1 26.2 0 39.3 0 3.8-1.3 7.1-4.9 9-3.6 1.9-8.2 1.1-10.9-2-1.8-2-2.4-4.5-2.4-7.2v-39c0-1.2-.4-2-1.2-2.9-8.6-8.6-17.2-17.2-25.8-25.7-2.4-2.4-3.5-5.3-3.6-8.6-.1-4.2-.1-8.5 0-12.7.1-4.1 1.5-7.5 5.4-9.4 3.8-1.8 8-.9 10.7 2.4 1.6 1.9 2.1 4.2 2.1 6.7V46c0 .6.2 1.3.6 1.7l21 21zm-183 0c7-7 14-14 21-20.9.3-.3.5-1 .5-1.5V37c0-3.8 1.3-6.9 4.7-8.9 2-1.2 4.2-1.4 6.5-.8 4 1.1 6.3 3.7 6.7 7.7.6 6.2.9 12.6-.3 18.7-.3 1.7-1.6 3.4-2.9 4.7-8.6 8.8-17.3 17.4-26 26.1-.7.7-1 1.4-1 2.4v39.5c0 4-1.5 7.2-5.1 9.1-2.5 1.3-6.4 1.2-8.9-.6-3-2.2-4.1-5.2-4.1-8.7V86.9c0-.9-.3-1.6-.9-2.3-8.6-8.6-17.2-17.1-25.7-25.8-2.4-2.4-3.8-5.2-3.7-8.7.1-4.4.1-8.7 0-13.1 0-3.9 1.3-6.9 4.7-8.9 2.7-1.5 5.5-1.6 8.2-.2 3.5 1.8 5.1 4.9 5 8.9-.1 3.2 0 6.4 0 9.6 0 .5.2 1.2.6 1.5 6.7 6.9 13.7 13.8 20.7 20.8zm-183 0c7-7 14-13.9 20.9-20.9.4-.4.6-1 .6-1.5.1-2.9 0-5.7 0-8.6 0-2.6.3-5.1 1.9-7.2 1.5-1.9 3.3-3.1 5.7-3.5 4.8-.7 7.9 1.5 9.9 5.3.6 1.2.7 2.8.7 4.2.1 4.6.1 9.1 0 13.7 0 3-1.1 5.7-3.3 7.8-8.8 8.8-17.5 17.5-26.3 26.2-.7.7-1.1 1.5-1.1 2.5v39.8c0 4.2-1.9 7.3-5.6 9-2.6 1.2-5.2.9-7.8-.5-3.5-2-4.8-5.3-4.8-9-.1-13.1 0-26.2 0-39.3 0-1.2-.3-2-1.1-2.8-8.7-8.6-17.3-17.3-26-25.9-2.2-2.2-3.2-4.8-3.2-7.9V36.8c0-3.9 1.3-7 4.8-9 2.6-1.5 5.4-1.5 8.1-.2 3.9 1.9 5.2 5.4 5.3 9.4.1 3.1 0 6.2 0 9.3 0 .5.2 1.2.5 1.5 7 7.1 13.9 14 20.8 20.9z"/></svg>