<?xml version="1.0" standalone="no"?>
<!DOCTYPE svg PUBLIC "-//W3C//DTD SVG 20010904//EN"
 "http://www.w3.org/TR/2001/REC-SVG-20010904/DTD/svg10.dtd">
<svg version="1.0" xmlns="http://www.w3.org/2000/svg"
 width="194.000000pt" height="194.000000pt" viewBox="0 0 194.000000 194.000000"
 preserveAspectRatio="xMidYMid meet">
<metadata>
Created by potrace 1.11, written by Peter Selinger 2001-2013
</metadata>
<g transform="translate(0.000000,194.000000) scale(0.100000,-0.100000)"
fill="#000000" stroke="none">
<path d="M392 1620 c-70 -43 -88 -147 -36 -209 12 -15 112 -78 221 -141 109
-62 210 -122 226 -132 l27 -19 0 -267 c0 -247 2 -269 20 -299 54 -89 200 -82
244 11 13 29 16 76 16 298 l0 263 226 130 c142 82 234 141 247 159 68 96 -7
234 -123 223 -35 -3 -92 -32 -263 -131 -120 -69 -223 -126 -228 -126 -5 0
-111 59 -236 130 -248 142 -274 151 -341 110z"/>
</g>
</svg>
